<?xml version="1.0" encoding="UTF-8" standalone="no"?>
<!-- Created with Inkscape (http://www.inkscape.org/) -->

<svg
   width="115mm"
   height="56mm"
   viewBox="0 0 115 56"
   version="1.1"
   id="svg5"
   inkscape:version="1.2.1 (9c6d41e410, 2022-07-14)"
   sodipodi:docname="cloudy.svg"
   xmlns:inkscape="http://www.inkscape.org/namespaces/inkscape"
   xmlns:sodipodi="http://sodipodi.sourceforge.net/DTD/sodipodi-0.dtd"
   xmlns="http://www.w3.org/2000/svg"
   xmlns:svg="http://www.w3.org/2000/svg">
  <sodipodi:namedview
     id="namedview7"
     pagecolor="#ffffff"
     bordercolor="#111111"
     borderopacity="1"
     inkscape:showpageshadow="0"
     inkscape:pageopacity="0"
     inkscape:pagecheckerboard="1"
     inkscape:deskcolor="#d1d1d1"
     inkscape:document-units="mm"
     showgrid="false"
     inkscape:zoom="0.93539562"
     inkscape:cx="452.21507"
     inkscape:cy="103.1649"
     inkscape:window-width="1366"
     inkscape:window-height="706"
     inkscape:window-x="-8"
     inkscape:window-y="-8"
     inkscape:window-maximized="1"
     inkscape:current-layer="layer1" />
  <defs
     id="defs2" />
  <g
     inkscape:label="Шар 1"
     inkscape:groupmode="layer"
     id="layer1">
    <path
       style="fill:#000000;stroke-width:0.264583"
       id="path536"
       d="m 8.0235569,31.290147 c 0.06782,-3.40856 1.1087257,-6.66361 2.3177151,-9.81535 0.502737,-1.19561 1.036074,-2.450214 1.960911,-3.395794 0.767311,-0.78453 1.725848,-1.183433 2.722092,-1.576763 1.071621,-0.29431 2.241695,-0.630593 3.369543,-0.47309 0.193418,0.027 0.380338,0.0889 0.570507,0.13337 -0.863115,-0.471213 -1.669216,-1.066683 -2.589344,-1.413636 -0.367417,-0.13853 0.609737,0.496823 0.889259,0.772603 1.248442,1.231743 2.12276,2.752699 3.000438,4.25296 0.574511,0.91149 0.850242,1.97675 1.43999,2.87921 0.888368,1.35941 3.222175,2.24368 4.274738,2.57459 0.300294,0.0944 0.479552,-0.4079 0.719328,-0.61185 2.190541,-2.5304 4.682159,-4.77633 7.356377,-6.781824 1.920187,-1.383483 4.052099,-2.389766 6.340729,-2.971659 0.413006,-0.0703 1.010473,-0.21816 1.444022,-0.12309 0.206203,0.0452 0.763997,0.359643 0.573058,0.269603 -0.889206,-0.419323 -1.694707,-1.117883 -2.667868,-1.257436 -0.381587,-0.0547 0.444114,0.631563 0.635762,0.966043 0.208299,0.363533 0.37465,0.749543 0.561975,1.124313 0.547516,1.154783 0.879171,2.388559 1.28288,3.594923 0.06136,0.18336 0.343977,1.148077 0.650534,1.320467 1.229124,0.69118 2.535391,1.2352 3.803086,1.85281 0.213193,-0.20575 0.441058,-0.39731 0.639583,-0.61724 0.665609,-0.7374 1.247357,-1.54741 1.907899,-2.28935 1.402432,-1.575241 2.911814,-3.007967 4.474803,-4.42022 2.032757,-1.678287 4.249521,-3.353037 6.834651,-4.075084 0.335618,-0.0937 0.684821,-0.12934 1.027234,-0.194 0.416438,0.0863 5.981456,1.321237 -1.805054,-1.2398947 -0.306443,-0.1008 0.441965,0.4749767 0.614998,0.7472467 0.608115,0.956845 0.851714,2.103225 1.112276,3.185546 0.469273,1.905036 0.802024,3.839252 1.215546,5.755399 0.622589,1.927607 1.188821,1.970267 4.211249,2.710407 0.286673,0.0702 0.397843,-0.43624 0.588743,-0.66134 0.53962,-0.63628 1.057142,-1.29098 1.586804,-1.935567 1.097282,-1.316944 2.304719,-2.56202 3.692439,-3.5777 0.825407,-0.604133 1.123527,-0.725403 2.01879,-1.208116 1.99072,-0.73209 4.26321,-1.274364 6.40091,-1.171984 0.34269,0.0164 0.68113,0.0831 1.02169,0.124601 0.27801,0.0973 0.56817,0.165083 0.83404,0.291863 0.2287,0.10906 0.86616,0.52421 0.63956,0.41083 -0.95034,-0.47551 -1.83809,-1.077594 -2.81375,-1.498704 -0.17007,-0.0734 0.24259,0.28104 0.34703,0.43403 0.22081,0.323471 0.33571,0.613964 0.49815,0.968034 0.49479,1.186423 0.53516,2.487336 0.58517,3.753849 -0.0408,0.78414 0.0289,1.731014 -0.42279,2.427964 -0.2695,0.41586 -0.75032,0.77739 -1.11182,1.08933 -1.40975,0.8894 -3.00554,1.43097 -4.56915,1.98593 -0.32499,0.20662 -1.76837,0.59417 -1.89562,0.9461 -0.046,0.12729 -0.12095,0.33308 -0.007,0.406 1.210493,0.77412 2.53737,1.34906 3.80606,2.02359 0.78029,-0.01 1.4855,0.0813 2.20977,0.38981 0.31253,0.13313 1.20222,0.6318 0.91072,0.45737 -3.22176,-1.9279 -2.74854,-1.63945 -1.31051,-0.5071 2.12219,1.93089 3.52142,4.1612 4.78965,6.69933 0.59972,1.58762 1.51995,3.78649 1.23145,5.52684 -0.0465,0.28028 -0.16937,0.54239 -0.25406,0.81359 -0.16815,0.22357 -0.30558,0.47397 -0.50445,0.67072 -1.19678,1.18403 -3.0586,1.33363 -4.63086,1.50718 -0.37806,-0.014 -0.75989,0.0131 -1.13417,-0.0419 -0.93784,-0.13802 -2.2078,-0.55644 -3.08278,-0.86474 -1.3944,-0.49131 -2.757043,-1.07461 -4.115807,-1.65519 -1.550816,-0.7058 -3.135475,-1.33784 -4.605037,-2.20449 4.141198,2.27918 3.25982,2.10049 2.286815,1.07127 -0.494813,-0.52341 -0.887875,-1.11308 -1.212427,-1.75232 -1.09842,-2.24533 -0.704662,-2.18939 -4.453093,-3.1775 -0.194683,-0.0513 -0.08092,0.39446 -0.121378,0.59169 -0.09042,2.26916 -0.19931,4.52595 -0.666318,6.75364 -0.165743,0.70811 -0.579988,2.55037 -1.48997,2.74559 -0.207592,0.0445 -0.424431,-0.0131 -0.636645,-0.0197 -0.294971,-0.0786 -0.599263,-0.1281 -0.884915,-0.23574 -0.388107,-0.14625 -0.760302,-0.33305 -1.128927,-0.52313 -0.409186,-0.21099 -1.610823,-0.89205 -1.20264,-0.67913 0.687012,0.35838 1.291752,0.91204 2.039398,1.11562 0.463315,0.12615 -0.777748,-0.56465 -1.146315,-0.87244 -0.341493,-0.28518 -0.654341,-0.60301 -0.981514,-0.90451 -0.922687,-0.93785 -1.678504,-2.01191 -2.372887,-3.12394 -0.111935,-0.17927 -0.753777,-1.35165 -1.03519,-1.53198 -1.242616,-0.79629 -2.575367,-1.44227 -3.863052,-2.16341 -0.235815,0.0942 -0.491685,0.1486 -0.707448,0.28247 -0.442918,0.2748 -1.334503,1.14204 -1.679088,1.48423 -0.968632,0.9619 -1.84872,1.98816 -2.71862,3.03848 -0.858375,1.10929 -1.756931,2.1851 -2.621174,3.28973 -0.04435,0.0567 -1.165336,1.51299 -1.307465,1.6321 -0.173908,0.14575 -0.409853,0.19484 -0.614781,0.29226 -1.970751,-0.82368 1.361879,0.94133 2.142429,1.17276 0.307488,0.0912 -0.417539,-0.48907 -0.594262,-0.7567 -0.661096,-1.00118 -1.09756,-2.13964 -1.541256,-3.24597 -0.653523,-1.67799 -0.891982,-3.45397 -1.125979,-5.22449 -0.03092,-0.14672 -0.04077,-0.29951 -0.09275,-0.44016 -0.03961,-0.10719 -0.07532,-0.24306 -0.178157,-0.29289 -1.266704,-0.61385 -2.505152,-1.35938 -3.87749,-1.67249 -0.293656,-0.067 -0.426117,0.42587 -0.634913,0.64296 -0.473506,0.49232 -1.105469,1.18238 -1.562251,1.67711 -0.906375,0.98995 -1.821582,1.99017 -2.870782,2.83414 -1.079439,0.8683 -2.268492,1.56687 -3.472579,2.24195 -1.261333,0.64384 -2.507771,1.53538 -3.932076,1.79385 -0.210818,0.0383 -0.426382,0.0428 -0.63957,0.0642 -1.02141,-0.19286 -3.969909,-0.81108 2.196661,1.37303 0.287843,0.10195 -0.417542,-0.44937 -0.58652,-0.70373 -0.575075,-0.86562 -0.853522,-1.87 -1.135489,-2.85501 -0.245737,-0.77114 -0.255442,-1.592 -0.433633,-2.37567 -0.03699,-0.16265 -0.180999,-0.72852 -0.400209,-0.84802 -1.252688,-0.68292 -2.557312,-1.26593 -3.835966,-1.8989 -0.912442,0.31595 -1.662727,0.92436 -2.537587,1.31777 -0.875938,0.39389 -1.00302,0.39231 -1.951183,0.66541 -2.545855,0.72259 -4.3799787,0.0397 -6.7495571,-0.84554 -0.369766,-0.16822 -0.742408,-0.33026 -1.109303,-0.50466 -0.75443,-0.3586 -1.496494,-0.74191 -2.227095,-1.14678 -0.335045,-0.18567 -1.334382,-0.75269 -0.995985,-0.57321 2.511544,1.33215 3.196585,1.96974 1.808578,0.81483 -1.628513,-1.83335 -0.73561,-3.21771 0.439333,-5.00159 0.878827,-1.02876 0.427791,-0.54037 1.349393,-1.46859 0,0 -3.262055,-1.99278 -3.262055,-1.99278 v 0 c -0.929416,0.97492 -0.474695,0.46041 -1.359316,1.5478 -0.97178797,1.49377 -2.09166097,2.98703 -1.18612997,4.81095 0.118285,0.23824 0.30230797,0.43774 0.45346197,0.65661 1.789057,1.61908 0.501068,0.52823 4.706186,3.01749 1.399442,0.82841 2.869565,1.54101 4.3672961,2.17155 2.492745,0.88291 4.260567,1.43086 6.901032,0.65865 1.041241,-0.30894 1.057481,-0.27489 2.015905,-0.70266 0.680138,-0.30356 1.312587,-0.76299 2.020247,-1.00066 0.157607,-0.0529 0.323826,-0.0755 0.485741,-0.1133 -0.993518,-0.62773 -1.997401,-1.23934 -2.98055,-1.88319 -0.103137,-0.0675 0.253733,0.0613 0.337145,0.15208 0.472311,0.51407 0.411121,2.2235 0.6999,2.90384 0.84459,3.10803 2.020774,5.92776 6.138489,6.06271 0.224566,-0.0372 0.452343,-0.0586 0.673693,-0.11168 1.41296,-0.33893 2.624635,-1.26404 3.884081,-1.93516 1.204822,-0.71033 2.414346,-1.4318 3.505403,-2.3136 1.056818,-0.85412 1.972416,-1.87085 2.912169,-2.84627 0.402211,-0.4176 1.152845,-1.21566 1.603028,-1.61473 0.193455,-0.17149 0.794459,-0.29281 0.612198,-0.47616 -0.851223,-0.85628 -2.053701,-1.27281 -3.041308,-1.96738 -0.175168,-0.1232 1.150291,0.21481 0.444515,0.46385 0.328436,1.79946 0.531792,3.62943 1.196859,5.35205 0.438735,1.12344 0.875919,2.25006 1.463032,3.30726 0.160605,0.2892 0.252489,0.65139 0.520946,0.84467 1.248788,0.89914 2.583757,1.68311 3.956254,2.37893 0.214677,0.10883 0.481356,-0.005 0.722032,-0.007 0.219718,-0.14549 0.46936,-0.25365 0.659148,-0.43647 0.09078,-0.0874 1.248831,-1.66246 1.254337,-1.66979 0.839843,-1.11669 1.722459,-2.19862 2.5966,-3.28843 0.867928,-1.0336 1.747927,-2.04494 2.730875,-2.97293 0.401566,-0.37911 1.113168,-1.04678 1.657721,-1.28263 0.176016,-0.0762 0.380349,-0.0501 0.570521,-0.0752 -0.916533,-0.57896 -1.790251,-1.23201 -2.749601,-1.73686 -0.240265,-0.12643 0.402281,0.36944 0.564634,0.58705 0.215877,0.28935 0.371849,0.61895 0.56341,0.92494 0.70626,1.12816 1.44858,2.23732 2.356278,3.21692 2.320735,2.22124 3.115789,2.48634 6.478842,4.43942 1.073533,0.62346 2.190794,1.22439 3.448677,1.33746 0.26008,-0.0426 0.533439,-0.0352 0.780237,-0.12765 0.995781,-0.37289 1.36819,-2.18227 1.548022,-3.0587 0.418711,-2.21608 0.570415,-4.45845 0.761457,-6.70246 0.325221,-1.69122 0.198766,-0.33603 -3.314491,-2.35577 -0.07246,-0.0417 0.167447,0.0557 0.219676,0.12092 0.311796,0.3896 0.371068,0.95503 0.662083,1.35942 0.312716,0.69469 0.70114,1.29407 1.190892,1.87985 0.143359,0.17147 0.260525,0.37644 0.446805,0.49994 1.255678,0.83253 2.572133,1.56953 3.858199,2.3543 1.466323,0.80931 3.021337,1.43569 4.55471,2.10508 1.34548,0.55472 2.69449,1.11408 4.07412,1.57997 0.97281,0.32852 2.19626,0.71483 3.22789,0.83959 0.38868,0.047 0.78301,0.004 1.17451,0.006 1.68915,-0.21842 3.58062,-0.44261 4.82934,-1.74965 0.22171,-0.23206 0.37706,-0.51947 0.56559,-0.7792 0.1,-0.30298 0.24334,-0.59494 0.29986,-0.90893 0.32114,-1.78415 -0.64483,-4.07693 -1.21405,-5.72656 -1.23866,-2.54301 -2.66939,-4.85673 -4.71885,-6.84152 -2.08459,-1.81237 -0.95939,-0.93935 -5.16748,-3.27713 -0.56794,-0.31552 -1.24601,-0.55337 -1.88368,-0.68078 -0.45415,-0.0908 -0.928837,-0.045 -1.37945,-0.16571 0.616093,0.38034 4.00641,1.72959 2.70564,2.00435 -0.0504,0.0106 0.0558,-0.0909 0.0995,-0.11807 0.50287,-0.31228 1.09859,-0.46306 1.62673,-0.72134 1.58891,-0.58401 3.19201,-1.19271 4.61569,-2.12211 0.43265,-0.36857 0.92501,-0.73114 1.24658,-1.21478 0.49303,-0.7415 0.42997,-1.74584 0.49007,-2.58692 -0.0468,-1.297301 -0.057,-2.640274 -0.50115,-3.8741 -0.14522,-0.35197 -0.49325,-1.338953 -0.79879,-1.555373 -1.21834,-0.862944 -2.50773,-1.621444 -3.78055,-2.401784 -0.21316,-0.13069 -0.43841,-0.24545 -0.674,-0.3292 -0.27811,-0.0989 -0.57255,-0.14381 -0.85882,-0.21572 -0.34159,-0.0224 -0.68244,-0.0663 -1.02476,-0.0673 -2.2181,-0.006 -4.446813,0.52476 -6.503557,1.3168 -0.912487,0.51015 -1.21131,0.63679 -2.051444,1.269704 -1.389607,1.046853 -2.590413,2.327346 -3.713898,3.647289 -0.465677,0.544273 -1.128564,1.34453 -1.647764,1.857907 -0.173873,0.17192 -0.731073,0.304287 -0.557612,0.476627 0.864428,0.85884 2.026409,1.35434 3.056194,2.00578 0.281263,0.17793 -1.463497,-1.10675 -0.536892,-0.84181 C 65.721713,19.2157 65.362298,17.267943 64.88813,15.348097 64.151099,11.82744 63.041032,9.0316153 58.434887,8.8437453 c -0.345082,0.0858 -0.697621,0.14592 -1.035251,0.25753 -2.560759,0.846543 -4.748908,2.5560847 -6.772063,4.2781647 -1.571741,1.423634 -3.07676,2.89349 -4.550047,4.419393 -0.40952,0.424143 -0.810065,0.85685 -1.214806,1.28556 -0.271671,0.287747 -0.520962,0.598327 -0.81444,0.863804 -0.169241,0.1531 -0.377404,0.2567 -0.566108,0.38505 0.995619,0.64283 1.976792,1.3086 2.986852,1.92849 0.165886,0.1018 -0.340915,-0.21074 -0.450268,-0.37175 -0.1715,-0.25252 -0.264781,-0.55107 -0.370863,-0.83729 -0.447109,-1.20635 -0.735968,-2.474381 -1.272003,-3.649934 -0.07829,-0.16961 -0.894464,-2.010256 -1.095174,-2.172206 -0.123185,-0.0994 -3.023701,-2.641777 -4.582028,-2.756787 -0.465405,-0.0344 -1.035743,0.11937 -1.478849,0.2113 -2.269704,0.68456 -4.393091,1.743334 -6.287524,3.179457 -2.638258,2.063396 -5.111609,4.32514 -7.487467,6.68389 -1.533017,0.83319 -0.912625,0.27926 2.274948,2.12649 0.199478,0.11559 -0.370863,-0.28185 -0.514712,-0.46202 -0.690012,-0.86424 -0.903433,-1.99195 -1.502373,-2.90939 -0.889304,-1.52069 -1.747189,-3.027741 -2.934907,-4.341857 -0.259326,-0.28692 -0.483523,-0.62294 -0.809262,-0.83143 -1.321377,-0.845753 -2.733471,-1.540606 -4.100208,-2.310909 -1.372444,-0.187121 -2.721213,0.0657 -4.010988,0.563063 -1.02837,0.45732 -2.0128357,0.921243 -2.7970344,1.763386 -0.9278807,0.996433 -1.4481857,2.292536 -1.9328017,3.53775 -0.523714,1.409987 -0.733391,1.907137 -1.171406,3.369387 -0.633481,2.11479 -1.05165,4.27784 -1.431893,6.44983 0,0 3.509258,1.78805 3.509258,1.78805 z" />
    <path
       style="fill:#000000;stroke-width:0.264583"
       id="path538"
       d="m 70.532246,25.880637 c -0.218617,-2.30471 0.562454,-4.46365 1.384078,-6.573287 0.752306,-1.850617 1.592893,-3.665733 2.780166,-5.282466 0.705093,-0.960154 1.022333,-1.253914 1.82453,-2.119664 1.2863,-1.136777 2.66872,-2.3710047 4.3518,-2.8830547 0.21056,-0.0641 0.43084,-0.0902 0.64627,-0.13538 0.195,0.0379 0.39611,0.0523 0.58501,0.11374 0.17574,0.0572 0.66384,0.32505 0.50007,0.23942 -0.94404,-0.49355 -1.82767,-1.135103 -2.84111,-1.463333 -0.25864,-0.0838 0.31954,0.44284 0.44108,0.68603 0.29867,0.597563 0.49305,1.407736 0.67173,2.0312027 0.31069,1.258735 0.49961,2.542655 0.6404,3.830129 0.082,0.750213 0.0844,1.473463 0.32427,2.190056 1.27026,0.563483 2.45179,1.400323 3.8108,1.690456 0.30545,0.0652 0.37936,-0.497133 0.54831,-0.759833 0.61446,-0.955423 0.67295,-1.237263 1.2715,-2.254586 0.76394,-1.298443 0.83356,-1.323616 1.72989,-2.524707 2.12714,-2.489235 5.02872,-4.0165947 8.04075,-5.1661607 0.36613,-0.0613 0.72715,-0.18228 1.09837,-0.18399 0.29537,-0.001 1.114956,0.337933 0.868666,0.17489 -0.826836,-0.54738 -1.692076,-1.093803 -2.649066,-1.353533 -0.29483,-0.08 0.38901,0.484093 0.49763,0.769633 0.31533,0.828903 0.24729,1.640013 0.26215,2.504346 -0.14453,2.4232347 -0.65617,4.8014987 -1.0743,7.1871047 -0.11492,0.663933 -0.19582,1.332593 -0.27421,2.001506 -0.0156,0.133397 -0.0266,0.267477 -0.0481,0.400057 -0.007,0.0422 -0.0743,0.10261 -0.0367,0.12279 1.16303,0.623244 2.36443,1.172084 3.546636,1.758134 0.0713,-0.1407 0.126147,-0.291 0.213827,-0.42211 1.585337,-2.370694 4.289607,-4.100007 6.612017,-5.660213 1.47149,-0.935703 2.99095,-1.804074 4.59465,-2.494384 0.40445,-0.17409 1.50374,-0.64758 2.03735,-0.62033 0.22736,0.0116 0.42196,0.17104 0.63295,0.25656 -0.95009,-0.48039 -1.839,-1.108287 -2.85025,-1.441155 -0.21929,-0.0722 0.25515,0.391158 0.32695,0.610578 0.0822,0.251207 0.11725,0.518337 0.12885,0.782387 0.0467,1.0625 -0.2967,2.066734 -0.61676,3.059447 -0.8195,2.273056 -1.79192,4.489023 -2.98104,6.59261 -0.61812,0.98498 -1.73249,2.00509 -1.29478,3.28671 0.0614,0.17982 0.17439,0.33768 0.26158,0.50652 1.00109,1.21472 2.04255,2.38674 2.97586,3.65838 1.00654,1.25362 1.50491,2.27163 1.81684,3.83794 0.0313,0.50487 0.29555,1.09131 -0.01,1.56753 -0.33184,0.5176 -1.06208,0.6548 -1.59521,0.81727 -1.24977,0.33417 -2.50154,0.35571 -3.7616,0.0967 -0.12103,-0.0205 -0.24537,-0.0965 -0.36308,-0.0617 -0.70186,0.20773 -0.33268,2.44233 -0.31468,2.91088 0.0196,0.51115 0.0211,1.02284 0.0316,1.53426 0.0111,1.48526 -0.0614,2.97147 -0.34823,4.43173 -0.1248,0.63524 -0.29707,1.38979 -0.62919,1.96584 -0.12986,0.22525 -0.32316,0.40739 -0.48474,0.61107 -0.21355,0.0978 -0.40926,0.25312 -0.64066,0.29335 -1.09427,0.19026 -2.33864,-0.40741 -3.283287,-0.86252 -0.39315,-0.1894 -1.532953,-0.83484 -1.152323,-0.62137 0.706316,0.39613 1.41966,0.77961 2.1295,1.16941 -0.944127,-0.62057 -1.833384,-1.32613 -2.57642,-2.18198 -0.50634,-0.58321 -0.91152,-1.25004 -1.37517,-1.86624 -1.27024,-0.68735 -2.45211,-1.572 -3.81072,-2.06206 -0.25547,-0.0922 -0.47445,0.26939 -0.68559,0.4402 -0.85874,0.69474 -1.51017,1.64778 -2.18285,2.50866 -0.34722,0.44436 -0.69746,0.88636 -1.04619,1.32954 -1.09805,1.30123 -2.27258,2.5396 -3.53941,3.67806 -0.54921,0.49356 -1.15,1.01643 -1.80703,1.37177 -0.2938,0.15889 -0.61452,0.26196 -0.92178,0.39294 -0.80081,0.18974 -1.70803,0.62676 -2.55237,0.34926 -0.24021,-0.0789 -0.87701,-0.49979 -0.64515,-0.39895 2.94391,1.28041 3.21355,2.2611 2.28075,0.41815 -0.83642,-2.55545 -0.71163,-5.27358 -0.87506,-7.92299 -0.12255,-1.023 -0.16039,-2.05922 -0.29711,-3.08054 -0.0231,-0.17263 0.0482,-0.41471 -0.095,-0.51379 -1.23236,-0.85247 -2.59617,-1.49717 -3.89425,-2.24576 -0.34458,0.0751 -0.69354,0.13233 -1.03374,0.22522 -0.75527,0.20621 -1.818323,0.60479 -2.545343,0.86201 -1.244447,0.44027 -2.492436,0.86608 -3.746633,1.27766 -1.790377,0.46688 -3.631845,0.82111 -5.483704,0.92224 -0.422418,0.0231 -0.850916,0.0724 -1.269116,0.009 -0.357119,-0.0545 -0.681847,-0.23899 -1.022771,-0.35848 0.844495,0.40453 1.60242,1.1139 2.533481,1.21358 0.340373,0.0364 -0.303075,-0.63442 -0.318214,-0.97641 -0.01932,-0.43604 0.09169,-0.87331 0.217828,-1.29115 0.250172,-0.82869 0.845717,-1.82549 1.203336,-2.61232 0.148566,-0.32688 0.267417,-0.66646 0.401127,-0.99969 0.0942,-0.51278 0.23078,-0.82914 0.07715,-1.32903 -0.04534,-0.14754 -0.09872,-0.31973 -0.22905,-0.40244 -1.250103,-0.7933 -2.548091,-1.5116 -3.862139,-2.19378 -0.201726,-0.10472 -0.447389,-0.0864 -0.663824,-0.15583 -0.299905,-0.0962 -0.587763,-0.22649 -0.881647,-0.33973 -0.397354,-0.21588 -1.575567,-0.88723 -1.192056,-0.64763 0.612328,0.38257 1.226706,0.7681 1.879306,1.077 0.45025,0.21311 -0.853165,-0.51495 -1.26955,-0.78838 -1.152054,-0.75654 -1.924928,-1.41247 -2.868234,-2.39914 -0.726115,-0.79523 -1.100233,-1.76254 -1.416992,-2.76929 -0.212963,-0.67686 -0.16869,-0.36029 -0.1734,-0.97846 0.09754,-0.1287 0.167272,-0.28429 0.292613,-0.38611 0.444024,-0.36071 1.06136,-0.52469 1.589474,-0.67398 1.340718,-0.37898 2.702581,-0.5984 4.077171,-0.80843 1.742667,-0.28289 3.486658,-0.60764 5.249479,-0.74299 0.923152,-0.0709 1.580509,-0.0655 2.502299,-0.0779 1.450705,0.0607 0.750443,0.0196 2.101051,0.11877 0,0 -3.079784,-2.266257 -3.079784,-2.266257 v 0 c -1.334006,-0.0638 -0.640342,-0.0401 -2.081149,-0.0663 -0.8611,0.0228 -1.662637,0.0315 -2.522659,0.1061 -1.757008,0.15239 -3.491,0.508787 -5.231818,0.775847 -1.174208,0.19064 -1.652066,0.253 -2.821382,0.50488 -1.016984,0.21906 -2.317861,0.41109 -3.130264,1.14703 -0.176895,0.16025 -0.280355,0.38638 -0.420532,0.57956 -0.01548,0.18838 -0.07058,0.37766 -0.04647,0.56512 0.02466,0.19174 0.130099,0.36414 0.189611,0.54806 0.341231,1.05456 0.661943,2.10735 1.417712,2.95867 0.730483,0.79883 0.848461,0.98878 1.734225,1.68684 0.633158,0.49899 1.746437,1.2276 2.432796,1.63167 4.138882,2.43662 3.189872,1.92326 5.798672,3.26192 0.314936,0.1152 0.628033,0.23554 0.944803,0.34559 0.21441,0.0745 0.83326,0.33964 0.648425,0.2079 -0.898218,-0.64017 -1.867194,-1.17491 -2.809531,-1.74817 -0.11389,-0.0693 0.245771,0.12706 0.323135,0.23562 0.271757,0.38134 0.144989,0.74149 0.113223,1.17696 -0.109884,0.33187 -0.196328,0.67245 -0.329654,0.99561 -0.549257,1.33136 -1.513653,2.61873 -1.588411,4.11091 -0.01992,0.39757 -0.09062,0.91254 0.207809,1.17597 1.188535,1.04914 2.676086,1.70054 4.014129,2.55081 0.355179,0.0822 0.702286,0.21565 1.065535,0.2466 0.420196,0.0358 0.84363,-0.0176 1.26424,-0.0481 1.876489,-0.13621 3.73669,-0.48852 5.551717,-0.97566 1.247997,-0.41908 2.48524,-0.86624 3.73014,-1.29395 0.64648,-0.22211 1.86095,-0.64676 2.55958,-0.76001 0.32396,-0.0525 0.6558,-0.0275 0.98369,-0.0412 -0.89751,-0.61139 -1.733,-1.32561 -2.69253,-1.83416 -0.14652,-0.0777 0.10478,0.31574 0.13518,0.47876 0.19105,1.02447 0.19036,2.0873 0.38077,3.11276 0.26323,2.67604 0.12559,5.40891 0.80387,8.03138 0.12568,0.32508 0.11159,0.74941 0.37706,0.97524 1.17545,0.99991 2.52245,1.78112 3.82886,2.60259 0.221,0.13896 0.47833,0.2257 0.73597,0.26777 0.89949,0.14688 1.78713,-0.26754 2.62024,-0.51701 0.31868,-0.15139 0.65287,-0.27371 0.95602,-0.45418 0.65681,-0.391 1.22617,-0.94167 1.77021,-1.4673 1.2319,-1.1902 2.38572,-2.458 3.53038,-3.73111 0.37369,-0.43101 0.75281,-0.85738 1.12107,-1.29304 0.50598,-0.59857 0.93328,-1.19684 1.4956,-1.7435 0.21339,-0.20746 0.43086,-0.41743 0.68418,-0.57363 0.16776,-0.10344 0.7072,-0.063 0.55892,-0.19286 -0.85646,-0.74982 -1.91885,-1.22515 -2.87827,-1.83772 0.53195,0.60877 0.92896,1.29902 1.44061,1.92341 0.73425,0.89606 1.621,1.64223 2.57962,2.28724 1.43801,0.84961 2.86443,1.7191 4.31401,2.54881 1.2455,0.7129 3.26086,1.68703 4.7328,1.24071 0.2689,-0.0815 0.47969,-0.29278 0.71954,-0.43916 0.17166,-0.23695 0.37739,-0.45262 0.51499,-0.71084 0.32968,-0.61872 0.48699,-1.404 0.60655,-2.07866 0.26294,-1.48366 0.34034,-2.98893 0.34746,-4.49349 0.0689,-2.36536 0.0472,-0.66176 0.0157,-2.60753 -0.004,-0.26137 -10e-4,-0.52282 -0.002,-0.78423 -2.1e-4,-0.12134 -0.0309,-0.24666 -9e-5,-0.36403 0.0371,-0.14125 0.64934,0.31891 0.43706,0.0299 1.29588,0.17514 2.58124,0.11416 3.83914,-0.27389 0.8461,-0.29822 1.8752,-0.64623 2.02287,-1.68529 0.0249,-0.17495 -0.10207,-1.00762 -0.12516,-1.17535 -0.12898,-0.69275 -0.25363,-1.39412 -0.53496,-2.04601 -0.3084,-0.71463 -0.79002,-1.34069 -1.24686,-1.96281 -0.91218,-1.25807 -1.86926,-2.47359 -2.93144,-3.60912 -0.10257,-0.13412 -0.22462,-0.25537 -0.30769,-0.40237 -0.63178,-1.11797 0.56451,-2.16906 1.06704,-3.06555 1.20276,-2.1217 2.09759,-4.404224 2.99951,-6.665937 0.44074,-1.271953 0.95979,-2.681726 0.68611,-4.05528 -0.0511,-0.25648 -0.0512,-0.58115 -0.25827,-0.74084 -1.18791,-0.915887 -2.53963,-1.596935 -3.80945,-2.3954047 -0.23648,-0.027 -0.47284,-0.10708 -0.70943,-0.0811 -0.5389,0.0593 -1.57528,0.5406027 -2.00055,0.7436197 -1.57039,0.749698 -3.05652,1.661515 -4.51436,2.607625 -1.64072,1.114564 -2.01245,1.333174 -3.594347,2.545007 -1.342323,1.028313 -2.712543,2.121226 -3.663113,3.541436 1.1451,0.678357 2.26573,1.399814 3.435276,2.035054 0.0486,0.0264 0.003,-0.11067 0.006,-0.16597 0.0386,-0.80965 0.117427,-1.616817 0.227557,-2.419851 0.34584,-2.425619 0.838987,-4.831306 1.030457,-7.277093 0.0141,-0.814268 0.09,-1.8330177 -0.11543,-2.6425307 -0.49813,-1.963053 -2.68525,-2.426886 -4.41538,-3.276409 -0.27213,-0.13363 -0.60669,-0.0818 -0.90814,-0.0496 -0.37545,0.0401 -0.73435,0.17613 -1.10152,0.264193 -3.01171,1.265113 -5.96128,2.846856 -8.12311,5.3573867 -0.87349,1.179437 -1,1.299837 -1.77667,2.551567 -0.46788,0.754074 -0.79362,1.445814 -1.32333,2.152737 -0.1561,0.20832 -0.704,0.38876 -0.52519,0.577943 0.84278,0.89169 2.02467,1.386443 3.03701,2.079676 -0.0828,-0.116883 -0.20062,-0.215613 -0.24851,-0.350623 -0.10629,-0.29969 -0.24208,-1.590153 -0.2664,-1.784843 -0.16187,-1.295866 -0.32367,-2.59369 -0.60742,-3.87005 -0.16615,-0.69308 -0.3117,-1.421837 -0.57269,-2.090502 -0.1043,-0.2672197 -0.1436,-0.6020927 -0.37156,-0.7762227 -1.19578,-0.913453 -2.51477,-1.655493 -3.81138,-2.419106 -0.16478,-0.097 -0.36363,-0.12745 -0.55336,-0.15143 -0.21606,-0.0273 -0.43556,-8e-4 -0.65335,-0.001 -0.2219,0.0646 -0.44927,0.1128 -0.66572,0.19385 -1.67896,0.62862 -3.03468,1.909376 -4.344393,3.081359 -0.846464,0.9317347 -1.090764,1.1479247 -1.832847,2.1808317 -1.185143,1.649601 -2.07142,3.467497 -2.840913,5.341273 -0.833867,2.122207 -1.656147,4.295934 -1.614983,6.612404 0,0 3.503782,1.78527 3.503782,1.78527 z" />
    <path
       style="fill:#000000;stroke-width:0.264583"
       id="path540"
       d="m 48.307172,37.985847 c -0.11208,1.88784 -0.337452,3.83732 0.117449,5.70117 0.07863,0.32217 0.208425,0.62965 0.31264,0.94448 0.149558,0.28653 0.279164,0.5844 0.448672,0.8596 1.559208,2.53141 4.459343,3.66934 6.931594,5.06537 1.12431,0.51112 2.6108,1.49706 3.871214,0.76742 0.260519,-0.15081 0.447659,-0.40257 0.671488,-0.60386 1.049679,-1.38368 1.241441,-3.10488 1.615147,-4.743 0.63736,-1.22217 0.333647,-0.55913 -3.443206,-1.70429 -0.178152,-0.054 0.03092,0.37113 0.03912,0.55711 0.0122,0.27644 0.01717,0.55316 0.02201,0.82983 0.01341,0.76426 0.01011,1.28862 0.01029,2.05797 0.0703,1.17764 -0.281921,3.06041 0.612987,4.02503 0.154982,0.16705 0.364159,0.27403 0.546237,0.41104 1.622727,0.86034 3.587602,2.6232 5.674964,2.15735 0.554363,-0.12373 1.042995,-0.35936 1.44704,-0.76674 0.208301,-0.21003 0.351256,-0.47604 0.526886,-0.71406 0.129609,-0.27608 0.285372,-0.54132 0.388829,-0.82822 0.633442,-1.75666 0.578906,-4.0896 0.685702,-5.95425 0.125968,-1.91873 0.805323,-1.12491 -3.343169,-2.33141 -0.200684,-0.0584 0.133043,0.39686 0.217054,0.58823 0.312232,0.71123 0.580075,1.13953 0.971029,1.83223 1.204118,2.23449 2.902614,4.10538 4.749389,5.82016 0.684325,0.60664 1.412562,1.17089 2.210119,1.62238 1.311343,0.74234 2.607513,1.51416 3.950163,2.19825 0.201,0.10242 0.43482,0.13401 0.65981,0.15059 0.22094,0.0163 0.44166,-0.0354 0.6625,-0.0531 0.19444,-0.0706 0.40288,-0.11061 0.58332,-0.21177 1.35976,-0.76236 1.27014,-2.71917 1.35914,-4.03198 0.22299,-2.56001 -0.14761,-5.10491 -0.95613,-7.53125 -0.36254,-0.95041 -0.84154,-1.84669 -1.32404,-2.73942 0,0 -3.49303,-1.56126 -3.49303,-1.56126 v 0 c 0.503303,0.87351 0.97618,1.76059 1.37338,2.68879 0.86128,2.37624 1.30487,4.87395 1.06476,7.40878 -0.10121,1.01728 -0.073,3.05741 -1.24322,3.57203 -0.16096,0.0708 -0.34129,0.0848 -0.511937,0.12723 -0.19726,-0.0106 -0.39773,0.005 -0.591763,-0.0319 -1.106473,-0.21134 -3.191699,-1.79299 2.06339,1.40102 0.23144,0.14067 -0.4763,-0.25864 -0.70611,-0.40197 -0.759957,-0.47398 -0.878307,-0.60303 -1.5989,-1.17529 -1.86484,-1.66379 -3.58388,-3.48836 -4.785705,-5.70257 -0.18841,-0.34104 -0.741513,-1.31093 -0.914429,-1.72753 -0.07396,-0.17819 -0.0065,-0.44542 -0.165499,-0.55462 -3.807045,-2.61383 -3.646271,-3.25519 -3.61541,-1.09556 -0.02484,1.81316 -0.01786,4.08699 -0.642895,5.80158 -0.09527,0.26135 -0.237408,0.50316 -0.356111,0.75474 -0.551219,0.70749 -0.846531,1.06861 -1.794298,1.19939 -0.256934,0.0354 -0.520152,0.0347 -0.778071,0.007 -0.264464,-0.0281 -0.986814,-0.33855 -0.778954,-0.17264 0.809485,0.64611 1.754584,1.10107 2.631876,1.6516 -0.464542,-0.21218 -0.710919,-0.23517 -0.988171,-0.69004 -0.602419,-0.98833 -0.329803,-2.33248 -0.398833,-3.41173 0.0098,-0.95086 0.01789,-1.90184 0.05185,-2.85224 0.0066,-0.18527 0.174318,-0.44451 0.02588,-0.55558 -3.495644,-2.61575 -3.311446,-3.3938 -3.561686,-1.9014 -0.177398,1.58977 -0.428808,3.23012 -1.417304,4.54047 -0.194718,0.15001 -0.360104,0.34892 -0.584147,0.45002 -1.140445,0.5146 -2.679415,-0.52446 -3.679116,-0.96784 0.809998,0.48491 1.619567,0.97053 2.429994,1.45472 0.292441,0.17472 -0.595773,-0.33267 -0.876046,-0.52631 -1.050327,-0.72567 -1.875012,-1.7296 -2.483715,-2.84331 -0.1196,-0.29912 -0.267494,-0.58843 -0.358799,-0.89736 -0.525224,-1.77714 -0.361167,-3.6872 -0.06138,-5.48475 0,0 -3.473883,-1.8786 -3.473883,-1.8786 z" />
    <path
       style="fill:#4d4d4d;stroke-width:0.282858"
       d="m 41.407482,42.513237 c -0.325477,-0.85052 -0.73633,-2.35308 -0.913006,-3.33902 -0.176672,-0.98593 -0.373591,-2.05895 -0.437597,-2.38449 -0.0807,-0.41044 -0.710363,-0.86567 -2.054005,-1.485 -1.065702,-0.49121 -2.054773,-0.8836 -2.197936,-0.87198 -0.143163,0.0116 -1.087654,0.96674 -2.098868,2.12249 -1.011214,1.15574 -2.475,2.60034 -3.252859,3.21022 -1.253749,0.983 -5.93135,3.68051 -6.403589,3.69286 -0.162435,0.004 -0.795903,-2.22357 -1.231915,-4.33248 -0.138251,-0.66869 -0.516843,-0.96373 -2.284847,-1.7806 l -2.11914,-0.9791 -1.33454,0.71624 c -3.267745,1.75379 -5.309957,1.96607 -8.4944231,0.88297 -2.649241,-0.90107 -3.590915,-1.48067 -4.178607,-2.57195 -0.579998,-1.07699 -0.43923,-1.78311 0.718902,-3.60611 l 0.858573,-1.35146 0.835747,0.43218 c 1.232498,0.63735 1.429557,0.54596 1.429557,-0.66298 0,-1.53167 1.1813067,-6.02168 2.2763211,-8.65202 1.424392,-3.421531 2.619211,-4.469644 5.947865,-5.217547 1.131239,-0.25417 1.152316,-0.24381 2.067007,1.016623 0.508262,0.70037 1.454293,2.313967 2.102292,3.585774 1.232802,2.41958 2.347827,3.45014 4.502189,4.16115 l 0.962856,0.31777 2.880019,-2.85129 c 4.119332,-4.078231 8.022018,-6.76184 10.576552,-7.27275 0.785584,-0.15712 0.874839,-0.0813 1.415473,1.202023 0.317359,0.753343 0.791821,2.031936 1.054359,2.84131 0.464577,1.432237 0.535075,1.498997 2.636351,2.496387 l 2.159008,1.0248 0.99745,-1.22354 c 3.23697,-3.970664 7.595774,-7.824986 10.516658,-9.299447 1.401757,-0.70761 2.517026,-1.044 2.517026,-0.75921 0,0.0412 0.376425,1.78619 0.836501,3.877797 0.460076,2.091596 0.810112,3.822883 0.777857,3.847303 -0.03225,0.0244 -2.013596,0.38024 -4.402984,0.790687 -6.168377,1.05962 -7.049125,1.6139 -6.277872,3.95081 0.872215,2.64284 2.977795,4.56108 8.288641,7.55116 1.205678,0.67882 2.192142,1.38552 2.192142,1.57046 0,0.18494 -0.388427,1.1663 -0.863174,2.18082 -0.474747,1.01451 -0.888426,2.39443 -0.919287,3.0665 -0.05361,1.16749 0.0031,1.26003 1.272101,2.07648 1.46331,0.94145 1.561481,1.19809 0.927383,2.4243 -1.06599,2.06139 -3.995205,0.1917 -7.089267,-4.52502 -0.83785,-1.27725 -3.945525,-3.39182 -5.001932,-3.40349 -0.728429,-0.008 -2.772709,1.97755 -5.527418,5.36875 -1.326912,1.6335 -2.561339,3.13605 -2.743176,3.33902 -0.261398,0.29176 -0.454496,0.0453 -0.922388,-1.1774 z"
       id="path751" />
    <path
       style="fill:#4d4d4d;stroke-width:0.282858"
       d="m 81.80665,49.190897 c -0.16201,-0.58339 -0.29528,-1.79261 -0.29615,-2.68714 l -0.002,-1.62643 h 1.35486 c 2.38522,0 4.6133,-0.73615 5.68087,-1.87693 0.93537,-0.99951 0.95167,-1.05976 0.82154,-3.0364 -0.29763,-4.52096 -4.05542,-10.59832 -8.01915,-12.96913 -0.84439,-0.50505 -1.53369,-0.984 -1.53177,-1.06434 0.002,-0.0803 0.87698,-0.49958 1.94458,-0.93166 1.0676,-0.43208 2.40254,-1.23374 2.96651,-1.78147 1.0355,-1.00566 1.05874,-1.08579 1.14206,-3.938637 0.0347,-1.189107 2.48781,-5.445729 4.07362,-7.06862 1.47656,-1.511084 3.64779,-2.9981547 5.59821,-3.8342077 0.70942,-0.30409 1.34295,-0.55289 1.40784,-0.55289 0.30168,0 0.0637,3.5190877 -0.44746,6.6157217 -0.31099,1.884146 -0.61121,3.710322 -0.66716,4.058162 -0.0844,0.524617 0.21083,0.804244 1.7314,1.640051 l 1.833126,1.00761 0.434667,-0.65006 c 0.807947,-1.208307 3.250617,-3.352704 5.551667,-4.87378 2.73774,-1.809736 5.21744,-3.124857 5.45121,-2.891087 0.41231,0.41231 -2.71301,7.780607 -4.16532,9.820187 -0.99329,1.39495 -0.74485,2.31741 1.3094,4.86174 2.18783,2.70977 2.89463,3.99736 3.1277,5.69782 0.15182,1.10763 0.0965,1.28625 -0.50029,1.61543 -0.36903,0.20355 -1.7529,0.4391 -3.07526,0.52344 l -2.40428,0.15334 -0.0344,3.81857 c -0.0625,6.93594 -1.13998,8.70899 -4.30972,7.09191 -1.043547,-0.53238 -2.82517,-2.27938 -3.3848,-3.31903 -0.15396,-0.28602 -1.17598,-1.00265 -2.27116,-1.59253 -2.36189,-1.27215 -2.47902,-1.23682 -4.4931,1.35536 -3.00722,3.87039 -6.99843,7.49572 -8.25223,7.49572 -0.15446,0 -0.41339,-0.47732 -0.57541,-1.06072 z"
       id="path753" />
    <path
       style="fill:#4d4d4d;stroke-width:0.282858"
       d="m 81.08893,40.671487 -0.19267,-1.66013 -2.08067,-1.19047 -2.08066,-1.19046 -3.280133,1.13723 -3.280111,1.13723 -0.799505,-1.10369 c -0.43973,-0.60703 -0.958533,-1.48761 -1.152895,-1.95684 -0.230458,-0.55637 -0.686832,-0.97373 -1.311945,-1.19977 -0.545732,-0.19734 -0.958559,-0.54155 -0.958559,-0.79923 0,-0.49528 -3.404819,-2.53697 -5.173906,-3.10253 -2.417675,-0.77289 -6.221433,-5.53537 -5.303985,-6.64082 0.681058,-0.82063 8.537847,-2.32245 10.455219,-1.99851 1.076756,0.18192 1.106805,0.21754 0.957839,1.1355 -0.149455,0.92099 -0.105248,0.9722 1.568887,1.8173 0.94747,0.47828 1.853589,0.8696 2.013595,0.8696 0.160219,0 0.290923,-0.63022 0.290923,-1.40274 0,-1.50399 1.404329,-5.833374 2.588503,-7.980057 0.59033,-1.070153 0.905293,-1.305913 2.508303,-1.877516 1.00825,-0.35953 2.62184,-0.72744 3.58575,-0.817593 1.67873,-0.157001 1.75844,-0.13543 1.89213,0.512003 0.0767,0.37175 0.22458,1.057763 0.32849,1.524483 0.10392,0.466713 0.24913,1.558576 0.32269,2.426359 0.11735,1.384254 0.0457,1.682431 -0.58423,2.431051 -0.6746,0.80172 -2.31332,1.65453 -5.26735,2.74119 -1.71592,0.63121 -2.090103,0.89936 -1.90996,1.36879 0.22373,0.58303 3.41481,2.20546 4.33783,2.20546 1.65242,0 5.28017,4.78079 6.59945,8.69701 1.20242,3.56934 0.61173,5.36428 -2.02277,6.14665 -0.79755,0.23685 -1.54177,0.43063 -1.65383,0.43063 -0.11206,0 -0.29045,-0.74706 -0.39643,-1.66013 z"
       id="path755" />
    <path
       style="fill:#4d4d4d;stroke-width:0.282858"
       d="m 73.396127,51.595187 c -1.860189,-1.89853 -3.592371,-4.4302 -4.167224,-6.09062 -0.271645,-0.78463 -0.564681,-1.0823 -1.236911,-1.2565 -1.086776,-0.28161 -1.307078,-0.60651 -0.91191,-1.34489 0.208597,-0.38977 0.595119,-0.57289 1.215226,-0.57574 0.500131,-0.002 1.727853,-0.19712 2.728267,-0.43292 1.802715,-0.42492 1.834805,-0.42182 3.599665,0.34704 2.20641,0.96121 2.38184,1.35381 2.56904,5.74941 0.10875,2.55354 0.0433,3.48318 -0.30365,4.31357 -0.65902,1.57727 -1.399377,1.4269 -3.492503,-0.70935 z"
       id="path757" />
    <path
       style="fill:#4d4d4d;stroke-width:1.06907"
       d=""
       id="path759"
       transform="scale(0.26458333)" />
    <path
       style="fill:#4d4d4d;stroke-width:0.282858"
       d="m 54.74055,48.712077 c -1.159422,-0.50453 -2.598147,-2.62377 -2.908294,-4.28391 -0.135414,-0.72482 -0.177231,-2.07852 -0.09293,-3.00823 0.102227,-1.12739 0.04413,-1.75782 -0.174448,-1.89291 -0.224557,-0.13878 -0.114829,-0.40255 0.348573,-0.83789 l 0.676296,-0.63534 0.581774,0.93676 c 0.736981,1.18668 2.347981,2.71449 4.114143,3.90171 l 1.375313,0.92449 -0.188355,1.41989 c -0.217866,1.64235 -1.059831,3.45206 -1.724784,3.70722 -0.647631,0.24852 -0.995963,0.2083 -2.007291,-0.23179 z"
       id="path765" />
    <path
       style="fill:#4d4d4d;stroke-width:0.0707144"
       d="m 62.392068,51.868547 c -0.07418,-0.2771 -0.04946,-5.09037 0.02786,-5.4257 0.0488,-0.21165 0.04788,-0.3364 -0.0029,-0.39764 -0.06088,-0.0734 -0.035,-0.31931 0.0336,-0.31931 0.01066,0 0.237955,0.0824 0.505113,0.18322 0.740913,0.27948 1.419148,0.39005 1.906241,0.31077 0.22515,-0.0366 0.425535,-0.0505 0.445302,-0.0307 0.07829,0.0783 -0.145958,2.16341 -0.311317,2.89461 -0.388358,1.71729 -1.196753,2.76531 -2.243722,2.90882 -0.288843,0.0396 -0.319106,0.0292 -0.360122,-0.12408 z"
       id="path767" />
    <path
       style="fill:#4d4d4d;stroke-width:0.0707144"
       d="m 67.330203,39.352477 c 0.08239,-0.74534 0.115568,-0.98086 0.138152,-0.98086 0.02135,0 1.533023,0.91378 1.581608,0.95605 0.0227,0.0197 -1.012232,0.26568 -1.492999,0.35478 l -0.268745,0.0498 z"
       id="path769" />
    <path
       style="fill:#4d4d4d;stroke-width:0.0707144"
       d="m 75.277673,41.201157 c -0.179633,-0.073 -0.450113,-0.18518 -0.601073,-0.24926 l -0.27446,-0.11652 0.45057,-0.17116 c 0.24782,-0.0942 0.471893,-0.17117 0.497953,-0.17117 0.0428,0 0.430407,0.7338 0.430407,0.81478 0,0.0635 -0.176737,0.0261 -0.503397,-0.10667 z"
       id="path771" />
    <path
       style="fill:#4d4d4d;stroke-width:0.0707144"
       d="m 76.85738,40.579317 c -0.82044,-0.36775 -0.82374,-0.34297 0.0864,-0.65062 l 0.58828,-0.19886 0.0488,0.49491 c 0.0268,0.2722 0.0658,0.53938 0.0867,0.59374 0.0538,0.14017 0.002,0.12491 -0.81018,-0.23917 z"
       id="path773" />
    <path
       style="fill:#666666;stroke-width:0.0707144"
       d="m 80.70814,11.98874 c -0.70756,-0.43087 -1.88127,-0.67277 -2.99613,-0.6175 -0.49438,0.0245 -0.50533,0.0215 -0.38893,-0.10816 0.18118,-0.201747 1.61819,-1.260452 2.09977,-1.5469917 0.54066,-0.321693 0.96491,-0.497283 1.03252,-0.427353 0.11922,0.12334 0.69559,2.4282747 0.69887,2.7948347 0.001,0.16139 -0.0397,0.15264 -0.4461,-0.0948 z"
       id="path775" />
    <path
       style="fill:#ffff00;stroke-width:0.264583"
       id="path968"
       d="m 43.764845,17.738943 c 0.796457,-0.815383 1.574245,-1.649913 2.403608,-2.434206 1.460939,-1.447596 3.194132,-2.515937 5.085604,-3.295217 2.163127,-0.786067 4.456792,-1.106997 6.730105,-1.392444 1.414764,-0.134491 2.82312,-0.323111 4.225444,-0.550468 1.25472,-0.2031197 2.527458,-0.2267397 3.795339,-0.2506497 0.947423,-0.005 1.905283,-0.0549 2.842683,0.12226 0.375111,0.0709 1.141315,0.2967567 1.493896,0.3963467 1.315543,0.379068 2.591886,0.877238 3.886346,1.321965 1.228453,0.54566 3.37385,1.69302 -2.053737,-1.247055 -0.151309,-0.082 0.28506,0.193501 0.419367,0.301078 0.34876,0.27937 0.35446,0.32056 0.631567,0.656767 0.2053,0.32305 0.37037,0.66833 0.55218,1.00458 0,0 3.593643,1.603554 3.593643,1.603554 v 0 C 77.16861,13.63433 76.97402,13.28915 76.81915,12.92305 76.55347,12.50872 76.24775,12.08209 75.81462,11.82021 74.24994,10.874163 72.83403,9.8755283 71.152935,9.2631553 c -1.283039,-0.44052 -2.55334,-0.923913 -3.864943,-1.274553 -0.582819,-0.15529 -0.956168,-0.27299 -1.547585,-0.3626 -0.947272,-0.143533 -1.906453,-0.074 -2.859355,-0.0706 -1.29109,0.025 -2.588149,0.0332 -3.862176,0.27162 -1.376079,0.23013 -2.758255,0.42294 -4.142835,0.5946 -2.292977,0.327773 -4.616005,0.655213 -6.794534,1.472776 -1.914197,0.8431147 -3.66572,1.9526217 -5.207133,3.3765017 -0.845862,0.782444 -1.623956,1.634574 -2.483022,2.400737 0,0 3.373493,2.067286 3.373493,2.067286 z" />
    <path
       style="fill:#ffff00;stroke-width:0.264583"
       id="path970"
       d="m 46.494864,12.37394 c -0.23767,-1.314667 -0.683686,-2.5881417 -1.662181,-3.5400947 -0.196522,-0.19119 -0.42291,-0.349063 -0.634365,-0.523593 -1.336734,-0.76981 -2.648771,-1.584183 -4.0102,-2.309426 -0.339958,-0.18109 -1.325822,-0.3834 -1.689989,-0.45332 -0.918718,-0.176373 -1.84695,-0.284653 -2.775474,-0.392333 -0.897236,-0.0976 -1.798317,-0.14162 -2.699779,-0.17365 0,0 3.146875,2.302396 3.146875,2.302396 v 0 c 0.879562,0.0273 1.759013,0.0691 2.634234,0.16512 1.201227,0.141013 2.436482,0.272213 3.591578,0.651993 0.270047,0.0888 1.02707,0.47547 0.792615,0.31472 -0.822222,-0.56373 -1.712283,-1.021503 -2.568421,-1.532253 0.218839,0.15408 0.451741,0.28991 0.656521,0.46223 1.046374,0.880553 1.459143,1.927696 1.703856,3.2373767 0,0 3.51473,1.790834 3.51473,1.790834 z" />
    <path
       style="fill:#ffff00;stroke-width:0.264583"
       id="path972"
       d="m 50.715823,9.5463953 c -0.16637,-2.618496 -0.03386,-5.231665 0.198445,-7.8402251 0,0 -3.355456,-1.74324296 -3.355456,-1.74324296 v 0 C 47.377839,2.5670102 47.272141,5.1677533 47.244886,7.7778623 c 0,0 3.470937,1.768533 3.470937,1.768533 z" />
    <path
       style="fill:#ffff00;stroke-width:0.264583"
       id="path974"
       d="m 59.495343,8.8387453 c -0.07919,-1.885996 -0.05068,-3.773942 -0.09593,-5.660745 0,0 -3.368643,-1.7048101 -3.368643,-1.7048101 v 0 c 0.05731,1.8613101 0.04761,3.7249931 -0.02826,5.5858591 0,0 3.492833,1.779696 3.492833,1.779696 z" />
    <path
       style="fill:#ffff00;stroke-width:0.264583"
       id="path976"
       d="m 70.826053,10.181555 c -0.06837,-1.6547427 -0.06118,-3.3120357 -0.05507,-4.9679317 -0.02903,-0.73529 0.02432,-1.462563 0.12682,-2.189073 0,0 -3.44043,-1.8098401 -3.44043,-1.8098401 v 0 c -0.09133,0.75054 -0.140909,1.5012901 -0.101928,2.2586101 0.006,1.637163 0.01431,3.275849 -0.05507,4.911802 0,0 3.525682,1.7964327 3.525682,1.7964327 z" />
    <path
       style="fill:#ffff00;stroke-width:0.264583"
       id="path978"
       d="m 74.3262,10.286595 c 1.45094,-1.7471927 3.50275,-2.8487857 5.45143,-3.9509587 0,0 -3.1404,-2.042046 -3.1404,-2.042046 v 0 c -2.01303,1.154206 -4.090157,2.293949 -5.710096,3.986492 0,0 3.399066,2.0065127 3.399066,2.0065127 z" />
  </g>
</svg>
