<?xml version="1.0" encoding="UTF-8" standalone="no"?>
<!-- Created with Inkscape (http://www.inkscape.org/) -->

<svg
   width="208mm"
   height="178mm"
   viewBox="0 0 208 178"
   version="1.1"
   id="svg5"
   inkscape:version="1.2.1 (9c6d41e410, 2022-07-14)"
   sodipodi:docname="rain.svg"
   xmlns:inkscape="http://www.inkscape.org/namespaces/inkscape"
   xmlns:sodipodi="http://sodipodi.sourceforge.net/DTD/sodipodi-0.dtd"
   xmlns="http://www.w3.org/2000/svg"
   xmlns:svg="http://www.w3.org/2000/svg">
  <sodipodi:namedview
     id="namedview7"
     pagecolor="#ffffff"
     bordercolor="#111111"
     borderopacity="1"
     inkscape:showpageshadow="0"
     inkscape:pageopacity="0"
     inkscape:pagecheckerboard="1"
     inkscape:deskcolor="#d1d1d1"
     inkscape:document-units="mm"
     showgrid="false"
     inkscape:zoom="0.46769781"
     inkscape:cx="397.69269"
     inkscape:cy="26.726659"
     inkscape:window-width="1366"
     inkscape:window-height="706"
     inkscape:window-x="-8"
     inkscape:window-y="-8"
     inkscape:window-maximized="1"
     inkscape:current-layer="layer1" />
  <defs
     id="defs2" />
  <g
     inkscape:label="Шар 1"
     inkscape:groupmode="layer"
     id="layer1">
    <path
       style="fill:#000000;stroke-width:0.264583"
       id="path108"
       d="m 10.557383,40.093721 c 2.134197,-1.447043 3.414751,-3.774792 4.808655,-5.880738 1.019404,-1.459133 1.600274,-3.158093 2.479834,-4.692663 0.393682,-0.686857 0.846338,-1.338217 1.262433,-2.011737 1.232668,-1.89382 2.584029,-3.719453 3.975813,-5.499976 0.881238,-1.042723 1.757285,-2.165323 2.968076,-2.852783 0.786679,-0.44666 1.280508,-0.52586 2.155792,-0.77401 2.856928,-0.55385 5.802823,-0.66466 8.705291,-0.52672 1.013878,0.16098 1.224754,0.1322 2.175047,0.52795 0.312285,0.13006 1.197189,0.63029 0.902245,0.46463 -4.283689,-2.406043 -2.637163,-1.625793 -1.666348,-0.66185 0.273828,0.27189 0.50637,0.58242 0.759555,0.87364 1.766554,2.18531 2.537563,4.886609 3.565451,7.447099 1.059889,2.751687 1.903092,3.567627 5.599692,4.295997 0.604112,0.11903 2.398588,-2.189757 2.458982,-2.258847 0.42224,-0.61061 0.865042,-1.20749 1.266719,-1.83181 1.188844,-1.84781 2.267222,-3.764503 3.421433,-5.634139 1.860952,-3.01444 3.808737,-5.970763 5.765088,-8.923576 1.806686,-2.6166147 3.756779,-5.3280618 6.475341,-7.0832414 1.184306,-0.764625 1.711147,-0.883373 2.996385,-1.3586173 2.672032,-0.7407863 5.511085,-0.8848463 8.257714,-0.563216 0.995686,0.277085 1.600626,0.402159 2.543913,0.837483 0.394058,0.181856 1.527051,0.8254603 1.141392,0.6264143 -0.698209,-0.360357 -1.309346,-0.9533733 -2.079207,-1.1104383 -0.496909,-0.101377 0.806116,0.61571 1.20283,0.9316433 0.369578,0.294325 0.730544,0.5993 1.095817,0.8989493 2.494888,2.0305286 4.69003,4.3849064 6.743917,6.8515401 1.819669,2.505299 3.569388,5.067836 5.016764,7.807979 0.766088,1.50411 1.107684,3.300866 2.399771,4.477029 1.229069,1.1188 5.318002,2.84175 5.420362,2.89261 3.68242,-0.2512 6.67616,-2.63252 9.31711,-5.006016 2.73467,-2.926983 5.96985,-5.223496 9.47258,-7.125336 4.06443,-2.210019 8.5238,-3.466739 13.04974,-4.29162 2.07826,-0.292127 4.15574,-0.224647 6.12952,0.536781 0.37185,0.143449 1.43457,0.694087 1.0843,0.503934 -0.81231,-0.440979 -1.64771,-0.838026 -2.47156,-1.257041 1.38211,1.388142 2.17943,3.181892 2.77575,5.018583 0.53,2.310056 1.14393,4.596109 1.51852,6.938019 0.23797,1.988516 0.27535,3.973836 0.78238,5.918496 2.48112,5.32674 5.65575,2.281857 8.044,0.19713 2.72972,-1.80603 5.23459,-3.99884 8.06101,-5.658343 0.66248,-0.38897 1.36616,-0.703073 2.04924,-1.054603 3.93581,-1.90554 8.21797,-2.327993 12.52446,-2.370893 2.00633,-0.008 4.08998,0.17098 5.94895,0.99785 0.35557,0.15816 1.36775,0.74285 1.02144,0.56535 -0.79563,-0.40782 -1.5798,-0.837607 -2.36971,-1.25642 1.91455,1.41458 2.38667,3.617186 2.68093,5.845919 0.0911,1.82333 0.30568,3.678197 0.1152,5.503967 -0.0922,0.883593 -0.30153,1.64187 -0.50655,2.500143 -0.62697,1.595706 -0.81685,3.451759 -1.98616,4.769105 -2.38189,2.805826 3.91244,2.972726 5.44362,2.981276 3.17939,0.258303 6.2042,1.321833 9.1067,2.588333 2.15691,0.918673 4.30889,1.847886 6.43062,2.845559 0.48795,0.22944 1.89064,1.028043 1.44967,0.717733 -0.60099,-0.422923 -1.28928,-0.705673 -1.93392,-1.058513 1.64149,1.127403 2.94471,2.535316 3.81568,4.331232 0.19203,0.39596 0.40189,0.79157 0.50746,1.218793 0.10301,0.4169 0.0739,0.855693 0.11087,1.283533 -0.64842,3.619122 -3.43424,4.863245 -6.55107,6.098608 -3.33174,1.211803 -6.86159,1.516493 -10.37318,1.689093 -3.02905,0.100603 -6.06047,0.0657 -9.09053,0.0467 -0.41165,0.0538 -2.04388,-0.279463 -2.28014,0.46097 -0.28478,0.892466 0.98167,1.96739 1.42301,2.487357 2.30525,2.605571 4.62757,5.201401 6.82687,7.89776 1.78142,2.428826 2.31348,5.371265 2.62464,8.296914 0.30154,2.408323 -0.47638,4.671683 -1.87558,6.605859 -1.36362,1.794286 -3.36176,2.157756 -5.47171,2.396016 -3.06672,0.3071 -6.11779,0.12508 -9.16124,-0.28586 -3.17708,-0.450433 -5.86455,-1.821156 -8.64694,-3.313769 0.54084,0.29849 1.69159,1.509343 1.6225,0.895483 -0.075,-0.666193 -1.10636,-0.757633 -1.65098,-1.148566 -1.93579,-1.389497 -3.74776,-2.93383 -5.69843,-4.302153 -1.4768,-0.78311 -2.86092,-1.774043 -4.4304,-2.349336 -1.8737,-0.68679 -3.81137,5.096219 -4.21581,6.139319 -0.88725,2.328226 -1.62348,4.726912 -2.78068,6.943481 -0.60979,1.168043 -0.94187,1.606183 -1.66199,2.686936 -1.82036,2.568319 -4.29561,4.35126 -7.13881,5.620004 -2.44132,0.90785 -5.04395,1.19813 -7.62728,0.98651 -1.67159,-0.0936 -3.17561,-0.70462 -4.6381,-1.483677 -0.60655,-0.32311 -1.37248,-0.489377 -1.77752,-1.044574 -0.94735,-1.298584 5.431,3.738831 0.0754,-0.36418 -2.65631,-2.122137 -4.83635,-4.733766 -6.7116,-7.552045 -1.07835,-1.714723 -2.17106,-3.446129 -2.86281,-5.358695 -0.57987,-1.83843 -0.44646,-1.60522 -4.01375,-2.38732 -0.2557,-0.0561 -0.2336,0.46878 -0.33864,0.70855 -1.31478,3.001066 0.5849,-1.14244 -0.99977,2.274383 -1.99008,3.849202 -4.98539,7.045541 -7.822248,10.27911 -2.342676,2.691974 -4.577977,5.473338 -6.933033,8.154518 -1.904296,1.9669 -3.628988,3.1382 -6.369685,3.43228 0.314592,0.63154 -2.723129,-0.97284 -2.070341,-0.65915 0.717119,0.3446 1.358249,1.12014 2.149565,1.03752 0.522438,-0.0545 -0.755835,-0.73453 -1.078015,-1.1494 -0.938271,-1.20821 -1.287921,-2.06847 -1.985931,-3.44143 -1.595578,-3.40606 -2.802745,-6.942498 -3.41099,-10.652457 -0.395412,-2.928139 -0.395756,-5.887008 -0.417161,-8.835501 -0.04048,-0.495353 0.06154,-1.023973 -0.121438,-1.486073 -0.134609,-0.33995 -0.436303,-0.63783 -0.774541,-0.77669 -1.591286,-0.653253 -3.203972,-1.425903 -4.91885,-1.560553 -0.750473,-0.0589 -1.354778,0.65784 -2.016917,1.015973 -1.361966,0.73663 -3.086512,1.79889 -4.41086,2.598213 -3.010207,1.83007 -6.079646,3.583543 -9.422548,4.738926 -2.182686,0.754383 -3.666032,1.068146 -5.888765,1.615786 -4.421884,1.107403 -8.95191,1.344473 -13.485844,1.445663 -1.918658,-0.0126 -3.841957,0.0733 -5.76049,0.009 -0.807307,-0.027 -1.645325,-0.0451 -2.408648,-0.35979 -0.27456,-0.1132 -0.503208,-0.31554 -0.754814,-0.47332 0.928706,0.46175 1.788404,1.101923 2.786116,1.385243 0.258707,0.0735 -0.291624,-0.455713 -0.391782,-0.705303 -0.117372,-0.29249 -0.203851,-0.5993 -0.256437,-0.910053 -0.208187,-1.230173 -0.07687,-2.489766 0.03446,-3.719169 0.493599,-3.133336 2.189594,-5.834009 3.82024,-8.486865 1.392541,-1.999066 3.469962,-3.198249 5.46087,-4.498432 1.366594,-0.892463 1.547834,-1.046263 2.807382,-1.961366 0.307092,-0.25334 0.685562,-0.439203 0.921277,-0.760033 0.983496,-1.338573 -2.390434,-2.405606 -3.896445,-3.106293 -0.754634,-0.351113 -4.249308,0.18084 -5.044551,0.30156 -3.96749,0.610717 -7.859834,1.58433 -11.818118,2.246093 -3.387523,0.49469 -6.816995,1.144103 -10.251378,0.95002 0.758079,0.680573 -3.048012,-1.385633 -2.267192,-1.082783 0.861029,0.333963 1.602052,0.970873 2.496106,1.202326 0.321183,0.0831 -0.462525,-0.476603 -0.675485,-0.731003 -0.49232,-0.588133 -0.539068,-0.728553 -0.908506,-1.367023 -0.970631,-2.023683 -1.516112,-4.254603 -1.51196,-6.497808 0.548903,-2.632506 2.720517,-4.152612 4.890699,-5.446075 2.537866,-1.657913 5.544834,-2.241886 8.261713,-3.508039 0.126197,-0.15676 0.319661,-0.27786 0.37859,-0.470283 0.146868,-0.47957 -0.232387,-0.95544 -0.595175,-1.186673 -3.086496,-1.96724 -3.940138,-2.411863 -6.842705,-3.310536 -2.925417,-1.062413 -5.885975,-2.003566 -8.7921363,-3.117779 -1.0189448,-0.58428 -5.3178365,-2.490906 0.014724,0.15141 0.3159744,0.156573 -0.5940129,-0.38126 -0.8768824,-0.59182 C 6.1433406,45.2891 6.194011,45.2726 5.5220519,44.52619 4.1913665,42.634817 4.0709814,40.314701 4.0703707,38.077685 c 0.2189557,-1.325873 0.052953,-3.398909 1.3648619,-4.267492 0.2097751,-0.13888 0.4625511,-0.19805 0.6938269,-0.29708 0.3507853,0.0347 0.7075985,0.0305 1.0523561,0.10399 0.4339685,0.0924 0.8606052,0.22582 1.2723243,0.39123 0.4458933,0.17915 1.6984741,0.895733 1.2921957,0.639113 -4.4510505,-2.811413 -1.2409035,-0.537353 -0.7363204,-0.10913 0.38495,0.3267 0.7363971,0.69093 1.1045958,1.036403 1.216815,1.212803 0.648898,0.61471 1.711251,1.787123 0,0 3.590998,1.510366 3.590998,1.510366 v 0 C 14.345085,37.665385 14.919382,38.277275 13.685,37.044622 11.352302,34.767956 9.9668613,34.040313 6.7191282,32.239053 5.9731559,31.825323 4.8935413,31.41632 4.0345866,31.31585 c -0.3914476,-0.0458 -0.787894,0.0231 -1.1818408,0.0347 -0.2601596,0.13777 -0.5455486,0.23592 -0.7804787,0.413323 -1.34631284,1.016647 -1.23463356,3.080503 -1.45877549,4.550376 -0.022329,2.299456 0.0569222,4.677045 1.30840469,6.686828 2.2539109,2.795486 5.7788707,4.208269 8.9546047,5.729965 2.907076,1.102213 5.871297,2.029563 8.79307,3.092106 0.495656,0.164493 0.996215,0.314873 1.486969,0.493453 1.43777,0.52319 2.72768,1.328363 -1.334821,-1.030093 -0.152441,-0.0885 1.53715,0.856443 0.59461,0.984243 -2.697295,1.309583 -5.710096,1.896926 -8.244248,3.563539 -2.290502,1.372866 -4.4880719,3.023809 -5.1178453,5.771508 -0.05503,2.290007 0.5076436,4.562615 1.3985451,6.667928 1.4215168,2.702013 2.6551962,3.026983 5.6981232,4.946879 1.030297,0.65005 1.170827,0.59159 2.367506,0.925933 3.446271,0.0805 6.870392,-0.529673 10.268669,-1.037463 3.944432,-0.700083 7.834233,-1.663356 11.800237,-2.243809 1.457957,-0.18624 2.173687,-0.3525 3.619082,-0.26522 0.462586,0.0279 1.65636,0.573833 1.375007,0.20558 -0.635756,-0.83211 -1.722355,-1.191573 -2.583534,-1.787353 0.03471,0.12838 0.178752,0.27505 0.104132,0.38513 -0.216845,0.31989 -0.585504,0.504573 -0.878255,0.756853 -2.844837,2.119906 -6.169089,3.703209 -8.353227,6.584788 -1.629275,2.716739 -3.365751,5.456825 -3.915108,8.632735 -0.104174,0.992853 -0.439677,4.908895 0.432655,5.609895 1.213797,0.975393 2.590577,1.728486 3.885866,2.592729 0.269314,0.12562 0.524066,0.28898 0.807945,0.37686 0.774282,0.239703 1.622515,0.248143 2.419503,0.262013 1.90454,0.0331 3.810985,-0.0532 5.715336,-0.0536 4.542851,-0.11159 9.072346,-0.35371 13.486485,-1.547603 2.135954,-0.54582 3.817683,-0.930963 5.915861,-1.655516 3.370902,-1.164063 6.459709,-2.912246 9.487421,-4.771262 1.33287,-0.800603 3.023941,-1.85043 4.415597,-2.550503 0.655227,-0.32961 1.97559,-0.16299 2.009857,-0.89565 0.04371,-0.93467 -1.400871,-1.283903 -1.870067,-2.093453 -0.177729,-0.306653 0.769874,0.18297 0.942273,0.49264 0.237882,0.427303 0.09652,0.973323 0.14478,1.459983 -0.0063,2.96811 0.006,5.943699 0.394976,8.892208 0.198995,1.253673 0.297476,2.072296 0.623252,3.308129 0.67764,2.570616 1.772216,5.014454 2.776688,7.466201 0.636257,1.31749 1.706576,3.83615 2.941151,4.73262 1.428829,1.03754 2.962455,1.92592 4.494668,2.80362 0.91854,0.52617 1.226428,0.44107 2.20209,0.49812 2.795034,-0.4241 4.548444,-1.64682 6.480492,-3.6939 2.347354,-2.6853 4.581398,-5.46515 6.899018,-8.175951 2.84421,-3.27619 5.82744,-6.516929 7.93473,-10.335588 2.36572,-4.881149 -0.88743,1.863596 1.04741,-2.239986 0.0927,-0.196573 0.4574,-0.431693 0.29829,-0.579713 -0.94388,-0.878127 -2.11636,-1.47631 -3.22161,-2.13997 -0.23951,-0.14381 0.85074,1.215653 0.29185,0.78563 0.66384,1.967913 1.79114,3.727246 2.89067,5.476972 1.86776,2.858109 4.03853,5.513655 6.6961,7.681688 2.92421,2.308764 1.27099,1.10473 6.43849,4.182618 2.0359,1.21264 4.15438,2.3165 6.57108,2.42756 2.63363,0.14687 5.27048,-0.15125 7.73382,-1.14722 2.87135,-1.34815 5.39675,-3.185904 7.24528,-5.807308 0.67288,-1.025523 1.11243,-1.639523 1.68119,-2.741816 1.15045,-2.229596 1.86409,-4.647092 2.76091,-6.980388 0.61911,-1.529286 1.15198,-3.340306 2.17348,-4.673156 0.22877,-0.29848 0.48216,-0.60594 0.81598,-0.77911 0.28573,-0.148233 1.15477,0.11295 0.9555,-0.139853 -0.54978,-0.69747 -1.48211,-0.97891 -2.22317,-1.468363 4.12193,2.776186 7.67703,6.356369 12.31223,8.373855 2.77702,1.483773 5.58556,2.811979 8.75148,3.218059 3.06967,0.38057 6.15318,0.534433 9.24004,0.2239 2.21146,-0.28334 4.25728,-0.769803 5.65563,-2.662676 1.41297,-2.010276 2.2949,-4.369992 2.0017,-6.859362 -0.325,-2.976519 -0.82875,-5.997735 -2.56638,-8.515404 -2.18935,-2.696206 -4.51302,-5.282799 -6.80006,-7.895802 -0.46014,-0.538157 -0.9083,-1.086534 -1.37159,-1.621981 -0.0826,-0.0955 -0.25164,-0.14954 -0.2599,-0.275527 -0.0108,-0.16485 0.51437,-0.25954 0.92248,-0.28476 0.37508,-0.0232 0.75158,-8e-4 1.12737,-10e-4 3.03424,0.009 6.07038,0.0414 9.10318,-0.0666 3.52549,-0.222727 7.0691,-0.560577 10.40161,-1.821397 3.41221,-1.381413 6.01316,-2.595249 6.84518,-6.484418 -0.0187,-0.465533 0.0396,-0.940573 -0.0559,-1.396576 -0.0926,-0.44217 -0.3126,-0.84864 -0.50039,-1.259523 -0.84799,-1.855296 -2.09002,-3.334789 -3.74938,-4.525882 -1.55722,-0.912203 -3.09816,-1.852786 -4.67167,-2.736609 -2.50991,-1.409783 -5.29679,-2.305173 -7.88761,-3.544253 -2.95394,-1.242556 -6.0259,-2.287389 -9.24707,-2.507479 -0.38729,-0.0131 -1.26179,-0.0241 -1.69792,-0.0976 -0.16425,-0.0277 -0.61536,-0.23389 -0.48096,-0.1355 0.98376,0.720183 2.03411,1.344713 3.05116,2.017066 -0.0223,-0.0324 -0.0853,-0.0625 -0.067,-0.0973 0.0681,-0.12945 0.19391,-0.21899 0.29087,-0.328493 1.16019,-1.413383 1.40563,-3.280049 2.0263,-4.959012 0.18914,-0.799543 0.43899,-1.755326 0.53051,-2.570309 0.20675,-1.84119 -0.0254,-3.71202 -0.071,-5.554017 -0.25658,-2.27532 -0.67763,-4.613983 -2.54824,-6.142759 -1.76158,-1.071287 -3.42281,-2.36341 -5.34079,-3.11981 -1.89212,-0.74621 -3.96394,-0.888683 -5.97453,-0.85419 -4.34108,0.0965 -8.65525,0.56048 -12.60014,2.53223 -0.6929,0.361873 -1.40603,0.68742 -2.07871,1.08562 -2.84225,1.682496 -5.39571,3.846549 -8.15544,5.654959 -0.42294,0.36244 -1.48154,1.29254 -1.96579,1.62205 -0.27438,0.18671 -0.55785,0.37053 -0.86906,0.48584 -0.24666,0.0914 -0.96408,-0.0622 -0.77921,0.1249 4.48906,4.54392 3.02487,2.317857 2.41042,1.310397 -0.55506,-1.932287 -0.63541,-3.902577 -0.83791,-5.896337 -0.35775,-2.360106 -0.98567,-4.653069 -1.48286,-6.985692 -0.57742,-1.899293 -1.35675,-3.724897 -2.68258,-5.234755 -1.4003,-0.868979 -2.77384,-1.782641 -4.2009,-2.6069337 -2.18349,-1.2612201 -4.91175,-1.1037304 -7.3023,-0.8169874 -4.53353,0.8994474 -9.00043,2.2105821 -13.09344,4.4042611 -3.53154,1.912045 -6.77594,4.249485 -9.53824,7.188741 -2.24078,1.99341 -4.79368,4.119726 -7.86393,4.623846 -0.42158,0.0692 -0.854324,0.0146 -1.281485,0.0219 0.723985,0.51426 1.471615,0.99675 2.171955,1.54278 0.28285,0.22054 -0.63105,-0.34662 -0.91643,-0.56389 -1.396538,-1.06325 -1.756284,-2.861823 -2.467426,-4.382169 -1.431901,-2.776 -3.210954,-5.346316 -5.011507,-7.894029 C 91.038719,11.207693 88.868258,8.8262119 86.385662,6.7795592 83.250727,4.1938596 79.822471,1.6742477 75.778368,0.83907443 c -2.789539,-0.243988 -5.661046,-0.130104 -8.346054,0.72295027 -1.30692,0.5230443 -1.831758,0.6554763 -3.03072,1.4696073 -2.699573,1.8330836 -4.643956,4.5886565 -6.428412,7.256896 -3.537119,5.408453 -6.887006,10.941499 -10.538102,16.271468 -0.424133,0.45029 -0.794796,0.95777 -1.2724,1.3509 -0.322175,0.26519 -1.306613,0.23894 -1.098381,0.60055 0.533577,0.926587 1.692341,1.307887 2.558434,1.934917 0.225083,0.16295 -0.462627,-0.32263 -0.633789,-0.54153 -0.233939,-0.29919 -0.690073,-1.482047 -0.808495,-1.769117 -1.075981,-2.56388 -1.805519,-5.302413 -3.513333,-7.552376 -1.688708,-2.144393 -2.916798,-2.572833 -5.732378,-4.171386 -0.960421,-0.545283 -2.061001,-0.764463 -3.148433,-0.846793 -2.932914,-0.0804 -5.91186,0.004 -8.787841,0.62301 -0.960099,0.296043 -1.389333,0.361913 -2.245355,0.873903 -1.222926,0.731443 -2.122268,1.873783 -3.017879,2.950593 -1.395579,1.795363 -2.760503,3.629256 -3.993137,5.539599 -0.419226,0.68322 -0.874427,1.34475 -1.272224,2.04067 -0.871322,1.524307 -1.431598,3.215777 -2.434913,4.66939 -1.371411,2.06965 -2.6420085,4.358809 -4.8088928,5.698262 0,0 3.3313068,2.133006 3.3313068,2.133006 z" />
    <path
       style="fill:#1a1a1a;stroke-width:0.565714"
       d="m 85.261338,106.75208 c -2.448015,-2.70503 -5.495624,-11.899324 -5.495624,-16.579706 0,-1.446916 -0.163729,-3.825282 -0.363839,-5.285255 -0.319704,-2.33251 -0.611335,-2.77846 -2.404287,-3.676603 -1.122246,-0.56216 -2.583799,-0.975313 -3.2479,-0.918113 -0.664099,0.0572 -3.855077,1.670996 -7.091059,3.586206 -9.113686,5.393952 -15.184537,7.092815 -27.839611,7.790648 l -7.286696,0.401803 0.243972,-3.372922 c 0.252124,-3.485569 2.29489,-8.291585 4.583885,-10.784501 0.639942,-0.696953 2.77627,-2.317936 4.747392,-3.602169 4.202459,-2.738019 4.613669,-4.092402 1.622028,-5.342395 -2.736339,-1.14331 -5.711645,-1.01139 -13.878171,0.61537 -3.889285,0.774733 -8.899024,1.568336 -11.132751,1.763536 l -4.061324,0.35492 -1.137694,-1.870786 C 8.8182949,63.745715 11.30285,59.480022 20.580745,55.99216 26.538433,53.752474 24.915907,51.932491 13.459629,48.004429 6.1709061,45.505313 5.0019338,44.46711 4.6461608,40.176951 4.2148204,34.975536 5.3960966,32.8557 7.9609814,34.228383 c 1.3925833,0.745293 1.3753819,1.365686 -0.075337,2.717239 l -1.1657845,1.086103 2.0480464,1.265763 2.0480457,1.265763 1.247911,-1.172353 c 0.884139,-0.830613 1.492725,-1.017563 2.087738,-0.64134 1.408441,0.89054 1.75587,0.61379 0.909535,-0.724523 -0.740176,-1.170433 -0.604183,-1.632106 1.690071,-5.737445 3.667686,-6.562937 7.852409,-11.958503 10.103236,-13.026596 1.250159,-0.59324 3.5686,-0.94409 6.488399,-0.98189 5.363696,-0.0694 5.816457,0.28468 8.245668,6.449129 1.63092,4.13867 3.520307,6.083927 5.909169,6.083927 1.907736,0 3.112802,-1.29414 6.848076,-7.35428 9.7283,-15.7832955 12.170359,-18.4096504 18.4322,-19.8232877 5.012182,-1.1315173 7.103271,-0.40113 11.902016,4.1572112 4.741937,4.5043735 6.842247,7.2961875 9.818741,13.0514605 1.634778,3.160979 2.483101,4.142889 4.520946,5.232869 4.497332,2.40549 7.192682,1.56857 13.819232,-4.290976 2.16639,-1.915633 5.35097,-4.340766 7.07686,-5.389186 5.29365,-3.215726 15.07151,-5.987257 18.28096,-5.181734 0.73915,0.185513 1.69877,1.147109 2.20577,2.210293 0.92608,1.942008 2.40291,8.315137 3.004,12.963533 0.40346,3.120077 2.11539,5.55553 3.9051,5.55553 0.70135,0 3.66559,-1.790253 6.58721,-3.97835 8.26692,-6.191366 12.67844,-7.901659 20.38159,-7.901659 5.77003,0 6.48651,0.61493 7.3085,6.272669 0.54098,3.723597 -0.0902,7.67337 -1.78618,11.176729 -1.11526,2.303819 -1.14011,2.573269 -0.29434,3.191699 0.50806,0.371513 2.98214,0.966563 5.49796,1.322346 2.96001,0.4186 6.59272,1.49856 10.29411,3.060313 4.6844,1.976526 6.00977,2.812849 7.32115,4.619742 1.90807,2.629039 2.01256,4.189692 0.41637,6.218918 -2.6466,3.364612 -7.63924,4.725505 -19.27875,5.254985 -5.52096,0.251153 -7.82206,0.556063 -7.82206,1.036473 0,0.374363 1.871,2.816821 4.15779,5.427705 2.28678,2.610883 4.61143,5.626572 5.16587,6.701515 1.51012,2.927769 1.79452,8.409981 0.57014,10.990171 -1.46209,3.081149 -3.49528,3.893242 -9.6946,3.872202 -6.23784,-0.0212 -9.39012,-0.944343 -14.0791,-4.123172 -7.79114,-5.281886 -9.31783,-6.187909 -10.42695,-6.187909 -1.31462,0 -2.91191,2.289266 -4.3419,6.222869 -3.04009,8.362664 -5.68562,11.977723 -10.53319,14.393364 -2.23652,1.114497 -3.76452,1.446647 -6.655,1.446647 -3.26355,0 -4.10282,-0.23241 -6.44754,-1.785484 -3.45548,-2.288804 -7.68126,-7.372379 -9.74235,-11.719921 -1.29355,-2.728536 -1.99048,-3.538616 -3.4925,-4.059496 -1.03206,-0.35791 -1.95541,-0.56172 -2.05189,-0.45292 -0.0965,0.10879 -0.74705,1.343383 -1.44571,2.74352 -1.33927,2.683949 -4.54117,6.800741 -11.402048,14.659991 -5.887516,6.74425 -8.483245,8.36532 -10.256824,6.40554 z"
       id="path179" />
    <path
       style="fill:#008080;stroke-width:0.264583"
       id="path299"
       d="m 47.108332,95.786619 c -1.89956,4.823921 -3.587277,9.714421 -4.856202,14.741651 -0.176573,0.82663 -0.353148,1.65325 -0.52972,2.47988 0,0 3.32337,1.78003 3.32337,1.78003 v 0 c 0.166921,-0.82623 0.333844,-1.65246 0.500767,-2.47869 1.230733,-5.00494 2.885807,-9.87882 4.967374,-14.597835 0,0 -3.405589,-1.925036 -3.405589,-1.925036 z" />
    <path
       style="fill:#008080;stroke-width:0.264583"
       id="path350"
       d="m 14.082634,79.742993 c -0.548156,8.004262 -1.190621,16.003496 -2.126889,23.972187 0,0 3.139948,1.64552 3.139948,1.64552 v 0 c 0.896411,-7.936195 1.497124,-15.902209 2.501672,-23.826851 0,0 -3.514731,-1.790856 -3.514731,-1.790856 z" />
    <path
       style="fill:#008080;stroke-width:0.264583"
       id="path352"
       d="m 68.954183,101.1711 c 0.08047,4.27247 -0.228338,8.53867 -0.527182,12.79777 0,0 3.248726,1.68508 3.248726,1.68508 v 0 c 0.317254,-4.22591 0.689452,-8.45156 0.798661,-12.68921 0,0 -3.520205,-1.79364 -3.520205,-1.79364 z" />
    <path
       style="fill:#008080;stroke-width:0.264583"
       id="path354"
       d="m 110.08262,105.93103 c -1.40141,4.64498 -2.37822,9.37294 -3.04337,14.17428 0,0 3.33289,1.75526 3.33289,1.75526 v 0 c 0.63567,-4.7771 1.55636,-9.50502 3.16208,-14.06298 0,0 -3.4516,-1.86656 -3.4516,-1.86656 z" />
    <path
       style="fill:#008080;stroke-width:0.264583"
       id="path356"
       d="m 85.94477,124.28312 c 0.143187,6.53559 0.127711,13.07335 0.08908,19.60999 0,0 3.303727,1.68333 3.303727,1.68333 v 0 c -0.03822,-6.50636 -0.05548,-13.01391 0.08908,-19.51921 0,0 -3.481885,-1.77411 -3.481885,-1.77411 z" />
    <path
       style="fill:#008080;stroke-width:0.264583"
       id="path358"
       d="m 39.995303,124.11866 c -1.245058,7.43114 -3.37883,14.67832 -5.275991,21.96154 0,0 3.249047,1.75749 3.249047,1.75749 v 0 c 1.769282,-7.31176 3.794879,-14.55782 5.491374,-21.88668 0,0 -3.46443,-1.83235 -3.46443,-1.83235 z" />
    <path
       style="fill:#008080;stroke-width:0.264583"
       id="path360"
       d="m 134.6612,131.71738 c 0.37961,5.54431 0.37646,11.10091 0.71798,16.6468 0,0 3.24832,1.62916 3.24832,1.62916 v 0 c -0.0881,-1.33916 -0.21284,-2.67641 -0.26441,-4.01747 -0.16019,-4.16574 -0.007,-8.3434 -0.21467,-12.50899 0,0 -3.48722,-1.7495 -3.48722,-1.7495 z" />
    <path
       style="fill:#008080;stroke-width:0.264583"
       id="path362"
       d="m 165.69406,118.21159 c 0.68973,6.65055 1.16011,13.32158 1.82011,19.9765 0.64825,5.77681 0.3085,2.95581 1.01322,8.46373 0,0 3.25578,1.60541 3.25578,1.60541 v 0 c -0.75084,-5.51663 -0.39506,-2.69227 -1.05949,-8.47407 -0.45405,-4.46592 -0.51164,-4.71148 -0.83728,-9.21788 -0.56969,-7.88362 -0.0213,-0.75844 -0.40334,-7.30949 -0.042,-0.71966 -0.1981,-2.40774 -0.27427,-3.25335 0,0 -3.51473,-1.79085 -3.51473,-1.79085 z" />
    <path
       style="fill:#008080;stroke-width:0.264583"
       id="path364"
       d="m 192.84561,77.976787 c 0.46829,6.236755 1.30156,12.438997 1.93063,18.661225 0,0 3.28066,1.62872 3.28066,1.62872 v 0 c -0.66591,-6.152912 -1.48212,-12.30701 -1.69108,-18.496309 0,0 -3.52021,-1.793636 -3.52021,-1.793636 z" />
    <path
       style="fill:#008080;stroke-width:0.264583"
       id="path366"
       d="m 143.07917,106.67691 c 0.0825,3.20927 0.0698,6.41992 0.0639,9.62993 0,0 3.35951,1.71176 3.35951,1.71176 v 0 c -0.006,-3.18829 -0.0193,-6.37726 0.0639,-9.56479 0,0 -3.48736,-1.7769 -3.48736,-1.7769 z" />
    <path
       style="fill:#008080;stroke-width:0.264583"
       id="path368"
       d="m 69.975311,123.97576 c -0.111302,0.71313 -0.256672,1.42176 -0.333901,2.13938 -0.313381,2.91195 -0.772806,9.66385 -0.962605,12.10392 -0.481835,6.19444 -0.875911,10.75001 -1.399609,16.96724 0,0 2.84697,1.48159 2.84697,1.48159 v 0 c 0.576419,-6.52974 0.906761,-10.41878 1.528802,-16.89972 0.384008,-4.00093 0.720908,-7.90286 1.344718,-11.86389 0.110366,-0.70078 0.29717,-1.38737 0.445755,-2.08105 0,0 -3.47013,-1.84747 -3.47013,-1.84747 z" />
    <path
       style="fill:#008080;stroke-width:0.264583"
       id="path370"
       d="m 111.42107,142.86942 c 0.0907,5.03276 0.0765,10.07242 0.50081,15.093 0.29487,3.48935 0.60234,5.32459 1.08812,8.75178 0.21822,1.2961 0.43644,2.5922 0.65466,3.8883 0,0 3.27236,1.59771 3.27236,1.59771 v 0 c -0.22803,-1.29739 -0.45605,-2.59478 -0.68408,-3.89217 -0.54761,-3.67837 -0.79879,-4.96683 -1.10946,-8.72782 -0.41092,-4.9746 -0.41809,-9.9706 -0.27884,-14.95621 0,0 -3.44357,-1.75459 -3.44357,-1.75459 z" />
    <path
       style="fill:#008080;stroke-width:0.264583"
       id="path372"
       d="m 96.108469,165.66253 c 0.540117,3.43379 0.814908,6.89373 0.989247,10.36277 0,0 3.394464,1.7089 3.394464,1.7089 v 0 c -0.16054,-3.43717 -0.37916,-6.86841 -0.863507,-10.27804 0,0 -3.520204,-1.79363 -3.520204,-1.79363 z" />
    <path
       style="fill:#008080;stroke-width:0.264583"
       id="path374"
       d="m 61.944008,106.67055 c -0.46179,0.82286 -0.773043,1.71348 -1.091236,2.59763 0,0 3.419781,1.89376 3.419781,1.89376 v 0 c 0.309272,-0.8623 0.610185,-1.73247 1.093513,-2.5177 0,0 -3.422058,-1.97369 -3.422058,-1.97369 z" />
    <path
       style="fill:#008080;stroke-width:0.264583"
       id="path376"
       d="m 56.61121,131.63923 c 0.07091,0.27383 0.164965,0.54269 0.212717,0.82149 0.23078,1.34742 0.35551,3.00962 0.440129,4.33894 0.21845,3.43175 0.289652,6.86751 0.359936,10.30458 0,0 3.297428,1.67047 3.297428,1.67047 v 0 c -0.04015,-1.54004 -0.141234,-5.45118 -0.183615,-6.93602 -0.07274,-2.54853 -0.09354,-5.13644 -0.380275,-7.67484 -0.03203,-0.28354 -0.107281,-0.56052 -0.16092,-0.84078 0,0 -3.5854,-1.68384 -3.5854,-1.68384 z" />
    <path
       style="fill:#008080;stroke-width:0.264583"
       id="path378"
       d="m 117.14896,125.47752 c 0.78916,3.42881 1.3954,6.90275 2.04557,10.36161 0,0 3.39966,1.65308 3.39966,1.65308 v 0 c -0.65082,-3.43515 -1.3026,-6.86886 -1.87248,-10.3178 0,0 -3.57275,-1.69689 -3.57275,-1.69689 z" />
    <path
       style="fill:#008080;stroke-width:0.264583"
       id="path380"
       d="m 27.654303,105.06204 c -0.03428,1.53967 0.09208,3.06721 0.260551,4.5955 0,0 3.516947,1.74148 3.516947,1.74148 v 0 c -0.181205,-1.50888 -0.362005,-3.01723 -0.25182,-4.54056 0,0 -3.525678,-1.79642 -3.525678,-1.79642 z" />
    <path
       style="fill:#008080;stroke-width:0.264583"
       id="path382"
       d="m 151.55942,94.093073 c 0.10353,4.930383 0.0474,9.860687 0.21478,14.789687 0.19221,2.53548 0.0854,1.30773 0.31548,3.68366 0,0 3.44146,1.70917 3.44146,1.70917 v 0 c -0.26035,-2.37731 -0.13692,-1.14981 -0.36604,-3.68294 -0.24464,-4.90341 -0.23488,-9.80946 -0.10738,-14.717091 0,0 -3.4983,-1.782486 -3.4983,-1.782486 z" />
    <path
       style="fill:#008080;stroke-width:0.264583"
       id="path384"
       d="m 102.90799,108.23593 c 0.0521,1.95905 0.0512,3.91891 0.0557,5.87846 0,0 3.38686,1.72569 3.38686,1.72569 v 0 c 0.004,-1.94062 0.003,-3.88157 0.0557,-5.82167 0,0 -3.49831,-1.78248 -3.49831,-1.78248 z" />
    <path
       style="fill:#008080;stroke-width:0.264583"
       id="path503"
       d="m 169.84051,96.070641 c 1.05923,3.361023 1.92307,6.779609 2.98759,10.138719 0.12645,0.38411 0.2529,0.76824 0.37936,1.15236 0,0 3.52099,1.65192 3.52099,1.65192 v 0 c -0.13363,-0.38617 -0.26727,-0.77233 -0.4009,-1.15849 -1.12162,-3.32101 -1.99766,-6.71902 -2.9392,-10.094216 0,0 -3.54784,-1.690293 -3.54784,-1.690293 z" />
    <path
       style="fill:#008080;stroke-width:0.264583"
       id="path505"
       d="m 182.93552,96.411972 c 0.79279,2.765139 1.00426,5.638998 1.42958,8.468538 0.17392,1.15707 0.60677,3.25074 0.83908,4.41172 0.5898,2.92435 1.08973,5.86765 1.33553,8.84191 0,0 3.49677,1.74422 3.49677,1.74422 v 0 c -0.2663,-3.00589 -0.81225,-5.97282 -1.41194,-8.92866 -0.19217,-0.93629 -0.72293,-3.46498 -0.86425,-4.38973 -0.43093,-2.81979 -0.61218,-5.686 -1.30875,-8.463674 0,0 -3.51602,-1.684324 -3.51602,-1.684324 z" />
  </g>
</svg>
