<?xml version="1.0" encoding="UTF-8" standalone="no"?>
<!-- Created with Inkscape (http://www.inkscape.org/) -->

<svg
   width="146mm"
   height="162mm"
   viewBox="0 0 146 162"
   version="1.1"
   id="svg5"
   inkscape:version="1.2.1 (9c6d41e410, 2022-07-14)"
   sodipodi:docname="sunny.svg"
   xmlns:inkscape="http://www.inkscape.org/namespaces/inkscape"
   xmlns:sodipodi="http://sodipodi.sourceforge.net/DTD/sodipodi-0.dtd"
   xmlns="http://www.w3.org/2000/svg"
   xmlns:svg="http://www.w3.org/2000/svg">
  <sodipodi:namedview
     id="namedview7"
     pagecolor="#ffffff"
     bordercolor="#111111"
     borderopacity="1"
     inkscape:showpageshadow="0"
     inkscape:pageopacity="0"
     inkscape:pagecheckerboard="1"
     inkscape:deskcolor="#d1d1d1"
     inkscape:document-units="mm"
     showgrid="false"
     inkscape:zoom="0.46769781"
     inkscape:cx="397.69269"
     inkscape:cy="460.7676"
     inkscape:window-width="1366"
     inkscape:window-height="706"
     inkscape:window-x="-8"
     inkscape:window-y="-8"
     inkscape:window-maximized="1"
     inkscape:current-layer="layer1" />
  <defs
     id="defs2" />
  <g
     inkscape:label="Шар 1"
     inkscape:groupmode="layer"
     id="layer1">
    <path
       style="fill:#ffff00;stroke-width:0.264583"
       id="path191"
       d="m 93.036509,47.671128 c -3.84556,-1.61596 -7.783066,-2.913147 -11.814819,-3.975025 -5.412666,-1.421575 -10.99568,-1.743911 -16.560639,-1.935618 -2.886205,0.01738 -5.825374,0.173882 -8.514953,1.354667 -3.50176,1.537351 -6.408798,4.128503 -9.301914,6.553289 -3.113106,2.988539 -6.291384,6.161308 -8.309753,10.037767 -1.12091,2.152793 -1.360664,3.379439 -2.043927,5.694025 -1.358702,5.910394 -1.44191,11.952796 -1.101696,17.972659 0.543687,4.415482 1.540862,8.807137 3.249927,12.92732 0.364141,0.87786 0.795441,1.72634 1.193163,2.589507 1.695534,3.392881 3.658859,6.659651 6.01409,9.639101 1.487527,1.88177 2.090833,2.44705 3.725233,4.18056 3.483602,3.59647 7.79358,5.95541 12.185425,8.27648 0.77598,0.4101 1.5763,0.7766 2.39196,1.10067 0.838383,0.33311 1.708915,0.57879 2.563373,0.86818 4.342745,1.04576 8.869378,1.87834 13.361441,1.55044 0.87735,-0.064 1.7449,-0.22521 2.61735,-0.33781 5.785416,-0.96187 10.851392,-3.86529 15.650016,-7.08308 1.763924,-1.29205 3.517324,-2.64926 4.970404,-4.29747 1.31273,-1.48901 2.34723,-3.19409 3.39632,-4.86932 2.43381,-3.82376 4.01278,-8.033537 5.18768,-12.385895 1.21312,-4.534192 1.81857,-9.188394 2.1459,-13.860753 0.20995,-4.613653 0.20822,-9.234102 0.22834,-13.851685 0.0952,-2.613444 0.0428,-5.208303 -0.61814,-7.747689 -0.82082,-1.937303 -2.42495,-3.423716 -3.87324,-4.907629 -2.83004,-2.530169 -6.29201,-4.231532 -9.55881,-6.108518 -2.094414,-1.120433 -4.361484,-1.855616 -6.579618,-2.685173 -2.496233,-0.870807 -5.074466,-1.472306 -7.676519,-1.922754 -2.879643,-0.369737 -5.788003,-0.426834 -8.687059,-0.491805 0,0 3.103006,2.265269 3.103006,2.265269 v 0 c 2.89718,0.067 5.805823,0.12601 8.676829,0.557797 2.594383,0.47352 5.165457,1.092243 7.648874,1.989906 2.214346,0.82103 4.467177,1.580073 6.538687,2.731716 -0.75399,-0.43878 -1.50866,-0.876393 -2.26197,-1.316323 -0.35921,-0.20978 0.71978,0.41723 1.07966,0.625853 1.45361,0.84263 2.87491,1.726113 4.12403,2.862416 1.43351,1.444526 2.97227,2.905449 3.9307,4.716915 0.74232,2.508663 0.81156,5.092539 0.75033,7.695912 0.0184,4.61255 0.0392,9.228193 -0.20131,13.836209 -0.31415,4.651346 -0.85825,9.293901 -2.10452,13.800463 -1.13408,4.32832 -2.72802,8.487448 -5.15801,12.271818 -1.03563,1.65588 -2.05229,3.3288 -3.34999,4.79961 -1.432861,1.62401 -3.138767,2.98712 -4.874257,4.26806 -4.898681,3.30922 -9.62244,5.97013 -15.556793,6.93236 -0.867643,0.0992 -1.731356,0.24266 -2.602929,0.29758 -4.467707,0.28152 -8.965928,-0.52854 -13.268566,-1.64335 -0.848484,-0.30078 -1.712317,-0.56134 -2.545453,-0.90233 -0.807886,-0.33067 -1.545526,-0.82871 -2.371809,-1.11026 -0.3096,-0.1055 1.080039,0.73605 0.796269,0.5734 -2.42125,-1.38778 -4.622179,-3.08317 -6.597682,-5.05571 -3.996849,-4.17353 -7.277669,-8.47077 -9.794145,-13.71075 -0.399322,-0.852837 -0.833562,-1.690181 -1.197967,-2.558518 -1.713661,-4.08346 -2.723391,-8.442042 -3.285924,-12.822354 -0.397248,-6.025972 -0.360841,-11.949801 1.006965,-17.875511 0.685673,-2.339657 0.880541,-3.4253 2.005176,-5.599946 1.988945,-3.845926 5.086004,-7.020365 8.174516,-9.982834 2.882239,-2.416946 5.761877,-4.924292 9.286039,-6.385521 2.681412,-1.111797 5.600761,-1.249177 8.456427,-1.245349 5.546617,0.207008 11.10893,0.563634 16.499503,1.994934 4.093126,1.108164 8.073519,2.490027 11.982826,4.134273 0,0 -3.128047,-2.430176 -3.128047,-2.430176 z" />
    <path
       style="fill:#ffff00;stroke-width:0.264583"
       id="path193"
       d="m 40.580282,53.363713 c -0.549986,-0.31653 -1.117549,-0.604323 -1.64996,-0.949593 -0.2423,-0.15714 1.018985,0.540913 0.77692,0.38341 C 33.996076,49.081601 27.920674,45.912191 21.747138,43.051834 17.224911,41.1664 12.522956,39.280778 7.5353996,39.298643 c -0.8831643,0.0032 -1.758448,0.166764 -2.6376713,0.250145 0,0 3.0639223,2.183982 3.0639223,2.183982 v 0 c 0.8563223,-0.07412 1.7094467,-0.225306 2.5689634,-0.222348 4.927722,0.01696 9.565198,1.90908 14.030807,3.779454 1.344228,0.626995 2.671479,1.291749 4.032686,1.880989 0.288589,0.12492 0.628835,0.11195 0.907571,0.25753 4.862912,2.539999 9.221663,5.991648 14.215644,8.294634 0,0 -3.13704,-2.359316 -3.13704,-2.359316 z" />
    <path
       style="fill:#ffff00;stroke-width:0.264583"
       id="path195"
       d="m 31.814155,71.634917 c -4.195389,0.0556 -8.397838,0.0239 -12.582408,0.387153 -3.23282,0.28067 -5.535912,0.660787 -8.738021,1.125057 -3.3827507,0.433733 -6.6734971,1.288763 -9.94369107,2.222516 0,0 3.09007927,2.114116 3.09007927,2.114116 v 0 c 3.2194411,-0.953743 6.4615208,-1.819873 9.8005308,-2.259626 3.425618,-0.49503 5.263131,-0.816183 8.731548,-1.090183 4.25899,-0.33646 8.531765,-0.25808 12.798476,-0.20569 0,0 -3.156514,-2.293343 -3.156514,-2.293343 z" />
    <path
       style="fill:#ffff00;stroke-width:0.264583"
       id="path197"
       d="m 39.023781,93.940962 c -0.364945,0.14509 -0.723495,0.307423 -1.094835,0.435263 -1.829679,0.62989 -1.462329,0.33908 -3.414313,1.13524 -2.502165,1.020557 -4.749813,2.440397 -7.024413,3.879311 -6.112163,4.118814 -10.413616,10.164464 -14.16731,16.388284 -0.484605,0.93157 -0.969208,1.86313 -1.453811,2.7947 0,0 3.226673,1.84105 3.226673,1.84105 v 0 c 0.468061,-0.93172 0.936125,-1.86345 1.404186,-2.79518 0.611413,-1.03366 1.184013,-2.09128 1.834237,-3.10097 3.260093,-5.06239 7.27437,-9.72545 12.288597,-13.10911 2.28465,-1.410447 4.540723,-2.782871 7.054609,-3.756695 1.446191,-0.560233 2.05803,-0.649593 3.480266,-1.102943 0.379626,-0.12101 0.751924,-0.263917 1.127884,-0.395867 0,0 -3.26177,-2.213083 -3.26177,-2.213083 z" />
    <path
       style="fill:#ffff00;stroke-width:0.264583"
       id="path199"
       d="m 45.823572,108.24492 c -4.426942,6.45852 -7.905995,13.48384 -11.214681,20.56013 -1.903416,4.46706 -3.669758,8.99018 -5.444316,13.5093 0,0 3.159773,1.75883 3.159773,1.75883 v 0 c 1.706177,-4.54078 3.39933,-9.08898 5.345023,-13.53475 3.348527,-7.0317 6.832094,-14.0652 11.528872,-20.31605 0,0 -3.374671,-1.97746 -3.374671,-1.97746 z" />
    <path
       style="fill:#ffff00;stroke-width:0.264583"
       id="path201"
       d="m 55.554,117.455 c -1.860142,14.22667 -3.203054,28.51534 -4.575633,42.79556 0,0 3.061619,1.59381 3.061619,1.59381 v 0 c 1.128339,-14.26042 2.339067,-28.55086 4.797454,-42.65342 0,0 -3.28344,-1.73595 -3.28344,-1.73595 z" />
    <path
       style="fill:#ffff00;stroke-width:0.264583"
       id="path203"
       d="m 74.009417,120.44281 c 0.36516,8.49348 2.071897,16.8815 3.763157,25.19129 2.131166,8.99251 0.996313,4.51441 3.404446,13.43433 0,0 3.0432,1.45064 3.0432,1.45064 v 0 c -2.41295,-8.90276 -1.28078,-4.4341 -3.39678,-13.40589 -1.622273,-8.18801 -3.291746,-16.4933 -3.288346,-24.87395 0,0 -3.525677,-1.79642 -3.525677,-1.79642 z" />
    <path
       style="fill:#ffff00;stroke-width:0.264583"
       id="path205"
       d="m 84.3685,124.53629 c 1.534663,4.95047 3.613886,9.72926 6.142289,14.254 0.98729,1.76682 2.0684,3.47955 3.102603,5.21932 3.382261,5.42234 7.081788,10.63283 10.785278,15.83692 0,0 3.17417,1.37618 3.17417,1.37618 v 0 c -3.73237,-5.17979 -7.45717,-10.36974 -10.804207,-15.81215 -1.01202,-1.72212 -2.074297,-3.41567 -3.036054,-5.16635 -2.4385,-4.43873 -4.48246,-9.14281 -5.784833,-14.04312 0,0 -3.579246,-1.6648 -3.579246,-1.6648 z" />
    <path
       style="fill:#ffff00;stroke-width:0.264583"
       id="path207"
       d="m 103.20398,109.30439 c 0.28001,0.69874 0.49788,1.42573 0.84004,2.09622 1.77866,3.48545 4.0143,6.80991 6.12022,10.08474 4.03358,6.27248 8.14549,12.49397 12.22229,18.73832 0,0 3.10364,1.36016 3.10364,1.36016 v 0 c -4.12308,-6.21721 -8.25931,-12.42288 -12.23502,-18.73618 -2.12123,-3.36844 -4.04673,-6.31078 -5.76432,-9.84955 -0.31565,-0.65033 -0.51383,-1.35138 -0.77075,-2.02707 0,0 -3.5161,-1.66664 -3.5161,-1.66664 z" />
    <path
       style="fill:#ffff00;stroke-width:0.264583"
       id="path209"
       d="m 108.92406,94.307135 c 3.91719,3.34839 7.71622,6.967245 10.83911,11.087145 0.66243,0.8739 1.25522,1.79847 1.88283,2.6977 2.30552,3.35867 4.03006,7.0517 5.86158,10.67542 0,0 3.43016,1.54812 3.43016,1.54812 v 0 c -1.87828,-3.62894 -3.60584,-7.34988 -5.89892,-10.74622 -0.62436,-0.90847 -1.2127,-1.84278 -1.87307,-2.72541 -3.07167,-4.1055 -6.84617,-7.671414 -10.62951,-11.104745 0,0 -3.61218,-1.43201 -3.61218,-1.43201 z" />
    <path
       style="fill:#ffff00;stroke-width:0.264583"
       id="path211"
       d="m 115.81461,80.731289 c 5.8895,-0.61809 11.53802,-2.727987 17.14963,-4.525103 0,0 -3.02518,-2.057006 -3.02518,-2.057006 v 0 c -5.63155,1.825526 -11.36062,3.949162 -17.32073,4.259879 0,0 3.19628,2.32223 3.19628,2.32223 z" />
    <path
       style="fill:#ffff00;stroke-width:0.264583"
       id="path213"
       d="m 110.78835,60.300238 c 5.96331,-3.112653 11.51652,-6.945365 17.10882,-10.665007 8.41719,-5.623401 4.24874,-2.845056 12.50498,-8.335602 1.78123,-1.163032 3.56245,-2.326061 5.34368,-3.48909 0,0 -2.88141,-1.846196 -2.88141,-1.846196 v 0 c -1.75628,1.179512 -3.51257,2.359025 -5.26885,3.538537 -5.46369,3.6624 -6.95422,4.688451 -12.53065,8.314898 -4.88156,3.174579 -9.75911,6.393088 -14.92483,9.095074 -0.8492,0.444193 -1.72783,0.829673 -2.59175,1.244503 0,0 3.24001,2.142883 3.24001,2.142883 z" />
    <path
       style="fill:#ffff00;stroke-width:0.264583"
       id="path215"
       d="m 116.01861,86.931054 c 7.13418,1.555353 14.04757,3.874269 20.95237,6.213068 0,0 -2.71128,-2.108176 -2.71128,-2.108176 v 0 c -7.02258,-2.367019 -14.05693,-4.684615 -21.26613,-6.429641 0,0 3.02504,2.324749 3.02504,2.324749 z" />
    <path
       style="fill:#ffff00;stroke-width:0.264583"
       id="path217"
       d="m 102.26407,53.391463 c -0.10303,-0.27147 -0.29007,-0.524673 -0.30909,-0.814413 -0.2658,-4.050052 1.51682,-9.94898 2.5316,-13.70618 1.24695,-4.616786 2.9205,-10.10938 4.28658,-14.684266 0.72167,-2.236687 1.44334,-4.473374 2.16502,-6.710061 0,0 -2.94455,-1.616398 -2.94455,-1.616398 v 0 c -0.70477,2.248072 -1.40953,4.496141 -2.1143,6.744213 -0.58348,1.939846 -3.80444,12.629084 -4.38709,14.641428 -0.60482,2.088938 -1.21703,4.176588 -1.754817,6.283783 -0.472577,1.851665 -1.304034,5.201892 -1.331497,7.382208 -0.004,0.29475 0.167583,0.56524 0.251373,0.84786 0,0 3.606771,1.631826 3.606771,1.631826 z" />
    <path
       style="fill:#ffff00;stroke-width:0.264583"
       id="path219"
       d="m 88.523516,45.005788 c -0.18361,-0.855917 -0.40795,-1.704102 -0.55083,-2.567753 -0.407617,-2.46385 -1.21677,-9.367382 -1.43459,-11.250765 -0.544323,-4.706432 -1.053503,-9.41687 -1.591246,-14.124057 0,0 -3.02863,-1.498846 -3.02863,-1.498846 v 0 c 0.89956,7.462809 0.81256,6.43082 1.58098,14.1155 0.122533,1.225463 0.85037,9.096777 1.09042,11.110396 0.10244,0.859285 0.25551,1.711772 0.38326,2.567657 0,0 3.550636,1.647868 3.550636,1.647868 z" />
    <path
       style="fill:#ffff00;stroke-width:0.264583"
       id="path221"
       d="m 68.57086,39.76676 c 0.811867,0.437115 1.924077,2.078508 2.435604,1.311346 0.53985,-0.809627 -1.244527,-1.504569 -1.753927,-2.333691 -1.98769,-3.235246 -4.199474,-7.901826 -5.780717,-11.238553 -2.443609,-5.156485 -3.466899,-7.536666 -5.753957,-12.678486 -1.899608,-4.21894 -3.712718,-8.4749208 -5.478438,-12.7511691 0,0 -3.337293,-1.53551257 -3.337293,-1.53551257 v 0 c 1.866233,4.31188917 3.775726,8.60436627 5.732944,12.87589967 2.845993,6.328804 5.659625,12.681521 8.696883,18.92192 0.803902,1.651709 1.607016,3.305588 2.49369,4.914379 0.461489,0.837329 0.812443,1.802905 1.546267,2.415767 1.280174,1.069152 2.890784,1.664674 4.336168,2.497011 0,0 -3.137224,-2.398911 -3.137224,-2.398911 z" />
    <path
       style="fill:#ffff00;stroke-width:0.264583"
       id="path223"
       d="m 55.893474,45.694851 c 0.57268,0.29482 2.167959,1.345374 1.718043,0.884444 -0.732132,-0.750044 -1.735389,-1.176119 -2.592131,-1.779925 -1.222603,-0.861655 -2.447801,-1.720376 -3.645578,-2.616218 -4.992174,-3.733747 -9.796893,-7.710795 -14.603084,-11.677626 -1.546275,-1.309685 -3.092553,-2.61937 -4.638831,-3.929055 0,0 -3.194603,-1.292095 -3.194603,-1.292095 v 0 c 1.559777,1.316498 3.119554,2.632996 4.679331,3.949493 4.774374,3.953418 5.234718,4.375288 10.036649,8.192963 3.845737,3.057475 4.195561,3.341026 7.905326,6.010601 0.823026,0.592254 1.631379,1.207468 2.486872,1.751777 1.610656,1.024778 3.271488,1.968485 4.907232,2.952728 0,0 -3.059226,-2.447087 -3.059226,-2.447087 z" />
    <path
       style="fill:#ffff00;stroke-width:0.565714"
       d="m 66.766526,121.09104 c -7.377234,-1.61326 -12.546984,-5.1481 -17.853628,-12.20749 -3.293076,-4.38076 -6.560148,-10.208771 -6.665122,-11.889668 -0.04468,-0.715447 -0.311848,-1.460097 -0.593709,-1.654787 -1.242613,-0.85829 -2.644309,-9.384154 -2.638999,-16.051779 0.01019,-12.771199 2.035286,-18.214995 9.564198,-25.710003 5.672185,-5.646645 7.502996,-6.809668 9.125048,-5.796675 1.199263,0.74896 1.489022,0.16256 0.438684,-0.887783 -1.405548,-1.405539 2.322804,-2.114159 11.123539,-2.114159 7.171634,0 8.702317,0.15331 9.88445,0.990002 0.900213,0.63715 2.449063,0.989997 4.345693,0.989997 1.874403,0 4.622226,0.61769 7.549869,1.697143 5.127057,1.890416 5.303274,1.931876 4.808567,1.131433 -0.394453,-0.63824 0.31725,-0.73409 1.65088,-0.22233 0.49216,0.18886 0.89484,0.818753 0.89484,1.399763 0,0.597623 0.72481,1.431196 1.669044,1.919476 2.13483,1.103973 2.17782,1.097383 2.39303,-0.36675 0.16312,-1.109733 0.4847,-0.945373 3.2922,1.682666 2.56249,2.398686 2.96172,3.013516 2.26286,3.484929 -0.71289,0.48088 -0.57722,0.791713 0.84857,1.944053 l 1.69715,1.37166 -0.0978,10.337589 c -0.16308,17.23802 -2.1231,26.186125 -7.67556,35.041333 -3.519294,5.61268 -7.542467,9.10279 -14.250344,12.36223 -6.254316,3.03904 -9.848399,3.8254 -12.118575,2.65145 -2.167674,-1.12094 -3.126887,-1.13623 -2.707424,-0.0432 0.41289,1.07598 -1.844493,1.05675 -6.947451,-0.0592 z"
       id="path225" />
  </g>
</svg>
