<?xml version="1.0" encoding="UTF-8" standalone="no"?>
<!-- Created with Inkscape (http://www.inkscape.org/) -->

<svg
   width="157.00101mm"
   height="141mm"
   viewBox="0 0 157.00101 141"
   version="1.1"
   id="svg5"
   inkscape:version="1.2.1 (9c6d41e410, 2022-07-14)"
   sodipodi:docname="weatherAppLogo.svg"
   xmlns:inkscape="http://www.inkscape.org/namespaces/inkscape"
   xmlns:sodipodi="http://sodipodi.sourceforge.net/DTD/sodipodi-0.dtd"
   xmlns="http://www.w3.org/2000/svg"
   xmlns:svg="http://www.w3.org/2000/svg">
  <sodipodi:namedview
     id="namedview7"
     pagecolor="#ffffff"
     bordercolor="#111111"
     borderopacity="1"
     inkscape:showpageshadow="0"
     inkscape:pageopacity="0"
     inkscape:pagecheckerboard="1"
     inkscape:deskcolor="#d1d1d1"
     inkscape:document-units="mm"
     showgrid="false"
     inkscape:zoom="1"
     inkscape:cx="435"
     inkscape:cy="340.5"
     inkscape:window-width="1366"
     inkscape:window-height="706"
     inkscape:window-x="-8"
     inkscape:window-y="-8"
     inkscape:window-maximized="1"
     inkscape:current-layer="layer1" />
  <defs
     id="defs2" />
  <g
     inkscape:label="Шар 1"
     inkscape:groupmode="layer"
     id="layer1">
    <path
       id="path331"
       style="fill:#ffff00;stroke-width:0.264583"
       d="m 52.303783,17.713146 c -0.463393,9.21e-4 -0.926759,0.0044 -1.390096,0.0124 -1.030517,0.01937 -2.060982,0.06094 -3.086117,0.173633 -1.255627,0.126559 -2.518476,0.209376 -3.763594,0.418064 -1.544489,0.287415 -3.088189,0.59106 -4.528406,1.246952 -1.517822,0.678537 -3.007809,1.464356 -4.359424,2.436027 -0.95399,0.724517 -1.924813,1.447055 -2.606559,2.451014 -0.86732,1.197554 -1.461175,2.557407 -2.027267,3.917585 -0.814635,2.29895 -1.318219,4.676413 -1.338936,7.126712 -1.3e-5,1.988103 -0.01542,3.977029 -0.08423,5.963995 l 3.520199,1.793696 c -0.06779,-2.015776 -0.08473,-4.033432 -0.08475,-6.050298 0.0053,-2.404716 0.48826,-4.740822 1.324983,-6.984605 0.539528,-1.332193 1.174419,-2.630179 2.054655,-3.770824 0.681281,-0.947335 1.579128,-1.686971 2.498039,-2.391069 1.352883,-0.917037 2.798026,-1.720134 4.299996,-2.365231 1.434337,-0.629817 2.975061,-0.891848 4.508252,-1.149801 1.246901,-0.158128 2.500019,-0.274504 3.752226,-0.38809 1.027109,-0.09544 2.058412,-0.119809 3.089217,-0.133842 0.925579,-0.0057 1.850983,-0.0036 2.776575,-0.0047 1.242633,-0.02658 2.478213,-0.02649 3.712951,0.120923 1.633643,0.271031 3.152917,0.914368 4.677234,1.532206 1.244695,0.551242 2.561708,0.887128 3.86178,1.274342 1.167294,0.350997 2.274958,0.868513 3.378088,1.380794 0.925038,0.445242 1.84381,0.902066 2.754354,1.375627 0.608353,0.350078 1.217297,0.699309 1.826245,1.048515 -0.567739,-0.326167 -1.19727,-0.687707 -1.540474,-0.882117 -0.17857,-0.101153 0.351334,0.211865 0.527099,0.317809 1.154247,0.678888 2.124831,1.60541 3.150189,2.454115 1.039324,0.71602 1.859937,1.664793 2.703717,2.587956 0.872823,0.87114 1.767676,1.72719 2.530596,2.698543 l 2.29495,0.988063 c 0.0539,-0.0319 0.10861,-0.0631 0.15916,-0.10025 0.0447,-0.0438 0.0914,-0.0852 0.14005,-0.12455 0.0444,-0.0377 0.092,-0.0712 0.13901,-0.10541 0.0254,-0.0228 0.053,-0.0423 0.0816,-0.0605 -0.5553,-0.623083 -1.15692,-1.206786 -1.74718,-1.795756 -0.88925,-0.89072 -1.63093,-1.93978 -2.699063,-2.642743 -1.055363,-0.814893 -1.984576,-1.79294 -3.125913,-2.498028 -0.458647,-0.279944 -1.089455,-0.648949 -1.727023,-1.01803 -0.1281,-0.08312 -0.299553,-0.1922 -0.386023,-0.24598 -0.174715,-0.108667 -0.354267,-0.20945 -0.532267,-0.312643 -1.296074,-0.751316 -2.593456,-1.500537 -3.890154,-2.250943 -1.214149,-0.642914 -2.445448,-1.251771 -3.686597,-1.840716 -1.117084,-0.5141 -2.241579,-1.019305 -3.429248,-1.351338 -1.283737,-0.38803 -2.584449,-0.724275 -3.811137,-1.278992 -1.544904,-0.611782 -3.093572,-1.232748 -4.752681,-1.458827 -1.255312,-0.132268 -2.511842,-0.106816 -3.772897,-0.111621 -0.463383,-0.0014 -0.927221,-0.003 -1.390612,-0.0021 z M 87.448928,34.81237 c -10e-4,1.9e-4 -0.004,6.6e-4 -0.006,10e-4 -0.008,0.002 -0.0142,0.009 -0.0212,0.014 0.0209,-0.006 0.0413,-0.0168 0.0269,-0.015 z" />
    <path
       style="fill:#ffff00;stroke-width:0.264583"
       id="path333"
       d="m 32.022291,31.943644 c -2.162953,-2.558636 -4.270327,-5.163863 -6.618763,-7.55671 -2.491381,-2.490706 -5.628389,-4.133342 -8.755081,-5.700751 -1.019744,-0.508086 -4.580943,-2.445493 0.270367,0.24507 0.337891,0.187398 -0.662834,-0.397261 -0.99576,-0.59334 -0.606864,-0.35742 -1.217292,-0.708748 -1.825524,-1.06383 -1.750711,-1.284811 -3.528076,-2.081239 -5.4367211,-2.911311 0,0 3.0385091,2.404587 3.0385091,2.404587 v 0 c 1.165936,0.510317 3.795831,1.829191 -1.164569,-0.862502 3.007611,1.748628 5.96547,3.594497 9.076941,5.154711 1.79184,0.921985 1.320263,0.703934 -1.307491,-0.84881 -0.301715,-0.178284 0.610674,0.344842 0.905142,0.534853 0.992492,0.640419 1.883743,1.419622 2.752645,2.215283 2.346423,2.314839 4.507495,4.8214 6.463737,7.474657 0,0 3.596568,1.508093 3.596568,1.508093 z" />
    <path
       id="path278"
       style="fill:#000000;stroke-width:0.264583"
       d="m 92.497718,29.330008 c -0.828377,-0.004 -1.660481,0.10693 -2.474264,0.2222 -1.863386,0.436453 -3.580199,1.240526 -5.127339,2.377126 -2.134783,1.612263 -4.159879,3.395456 -5.889053,5.443612 -0.607907,0.769763 -0.899133,1.112663 -1.461409,1.931666 -0.963287,1.403113 -1.755073,2.914609 -2.717664,4.318092 -0.759036,1.086463 -1.572761,2.150996 -2.075842,3.388436 -0.08437,0.174647 -0.314454,0.638004 -0.387056,0.833014 -0.02367,0.0636 -0.04112,0.13086 -0.05891,0.19792 -0.04298,-0.0344 -0.08413,-0.0704 -0.128674,-0.10335 -0.749178,-0.631177 -1.435107,-1.337094 -2.247925,-1.889284 -2.364374,-1.457683 -4.752366,-2.875406 -7.309631,-3.966179 -1.29192,-0.538333 -2.592453,-1.124923 -4.017326,-1.151353 -1.177264,-0.0519 -2.357049,-0.0245 -3.534151,0.0233 -1.279048,0.0955 -2.545667,0.27035 -3.75636,0.71882 -1.229273,0.443663 -2.445104,0.973113 -3.511413,1.738396 -1.30919,1.002403 -2.467489,2.195086 -3.674195,3.315566 -0.469841,0.450927 -0.944798,0.896404 -1.410766,1.351334 -0.594774,0.580677 -1.162345,1.21097 -1.869654,1.64331 -0.695012,-0.938143 -1.484746,-1.81578 -2.319238,-2.627227 -2.236564,-1.780437 -4.733234,-3.15667 -7.230566,-4.545986 -1.288324,-0.71336 -2.590849,-1.412823 -3.955831,-1.969906 -1.042254,-0.38769 -2.118157,-0.65202 -3.228227,-0.75448 -1.187407,-0.0899 -2.375767,-0.0757 -3.551204,0.14366 -0.560978,0.13074 -0.766471,0.15025 -1.293978,0.38448 -1.039778,0.461703 -1.882554,1.266633 -2.796729,1.921336 -1.742738,1.346013 -3.532613,2.670466 -4.817794,4.490169 -1.409562,1.895401 -2.9448611,3.710574 -4.1584005,5.741767 -1.1498764,1.96347 -2.2198897,3.952336 -3.1884357,6.013079 -0.9385743,1.863636 -1.952963,4.047902 -3.2861034,5.659095 -0.13468167,0.16277 -0.29477767,0.30203 -0.44235067,0.45321 l 3.30677407,2.176093 c 1.461634,-1.997973 2.5634533,-4.232196 3.6654097,-6.440962 0.9794314,-2.041286 2.1174398,-3.993059 3.2488955,-5.951075 1.151763,-2.05429 2.683438,-3.856683 4.137215,-5.698366 1.277397,-1.776901 3.010172,-3.112681 4.736662,-4.422464 0.911396,-0.638163 1.780396,-1.405233 2.833935,-1.808676 0.488545,-0.18708 0.726594,-0.20705 1.240235,-0.30334 1.16301,-0.17651 2.331,-0.1526 3.496944,-0.0424 1.089742,0.14846 2.162962,0.39724 3.164148,0.856283 0.823872,0.34878 1.626403,0.74623 2.417423,1.165313 0.113623,0.071 0.249467,0.15016 0.342615,0.21187 0.604533,0.40047 1.185009,0.842883 1.761133,1.282613 0.979098,0.82948 1.81066,1.825747 2.586405,2.844261 1.358974,2.194653 2.275097,2.695223 5.178496,3.983746 0.218096,0.0968 0.456485,-0.13916 0.684712,-0.20878 1.547119,-0.907013 2.72604,-2.307883 4.00234,-3.546556 1.212794,-1.096197 2.363568,-2.289001 3.693832,-3.244751 1.064992,-0.696573 2.241504,-1.225773 3.441133,-1.646426 1.202007,-0.41331 2.457672,-0.54907 3.718636,-0.61339 1.167863,-0.0234 2.340147,-0.0763 3.505729,0.0155 1.383979,0.0772 2.644194,0.693043 3.899504,1.225253 0.428503,0.20752 0.860702,0.40885 1.291911,0.611853 0.562834,0.42992 1.074985,0.92569 1.610754,1.38906 0.713907,0.53614 1.277889,1.209934 1.821594,1.909431 0.245578,0.27159 0.468803,0.61694 0.794267,0.80667 1.829979,1.066783 2.73519,2.875776 4.123263,1.771993 0.346125,-0.33176 0.392492,-0.80029 0.537951,-1.22939 0.05792,-0.17086 0.276425,-0.649153 0.338481,-0.788583 0.490095,-1.218347 1.269485,-2.280221 1.969906,-3.380661 0.89753,-1.445303 1.696907,-2.951969 2.669084,-4.350652 0.559593,-0.805143 0.851293,-1.137033 1.461926,-1.888776 1.303013,-1.564683 2.776943,-2.971109 4.354773,-4.251432 -5.3e-4,-0.0447 0.0292,-0.098 0.10077,-0.14108 0.0607,-0.0366 0.12315,-0.0707 0.18035,-0.11265 0.0447,-0.0438 0.0914,-0.0852 0.14005,-0.12455 0.0444,-0.0377 0.092,-0.0712 0.13901,-0.10541 0.034,-0.0305 0.072,-0.0551 0.1111,-0.0786 0.029,-0.0174 0.0563,-0.028 0.0811,-0.0331 0.233,-0.179693 0.46708,-0.357613 0.70384,-0.532263 1.555259,-1.082783 3.275829,-1.818703 5.12991,-2.178163 1.061673,-0.11478 2.149983,-0.26594 3.216856,-0.11008 0.819807,0.11976 1.125934,0.26093 1.913061,0.52245 0.541227,0.22148 0.762854,0.30373 0.979774,0.40101 0.362517,0.21993 0.756784,0.46166 1.027324,0.63769 1.58409,1.109403 2.94477,2.488639 4.2323,3.921732 1.06087,1.243203 2.02891,2.559429 2.98845,3.880912 1.23326,1.555313 2.44021,3.123219 3.44423,4.837962 0.75324,1.287327 1.3139,2.674421 2.05982,3.964614 0.12266,0.13811 0.23027,0.29129 0.36794,0.41444 0.13395,0.11981 0.28472,0.22136 0.44132,0.30954 1.26773,0.71381 2.52918,1.441803 3.82922,2.094973 0.16296,0.0819 0.3558,0.10832 0.53795,0.0992 0.54542,-0.0272 0.81348,-0.29322 1.26091,-0.57826 1.05575,-0.841043 1.94903,-1.859463 2.96261,-2.747123 0.78987,-0.691763 0.95121,-0.779363 1.79472,-1.3901 1.25398,-0.806977 2.60064,-1.482184 4.03696,-1.897034 0.18676,-0.0539 1.93264,-0.46866 2.10168,-0.50901 1.93871,-0.45465 3.92333,-0.61253 5.90713,-0.694533 1.11771,0.0359 2.21885,0.263333 3.26802,0.639233 0.13837,0.11675 0.27288,0.23408 0.38241,0.34313 0.53739,0.53504 0.99814,1.13474 1.46554,1.729604 0.80235,1.081077 1.41915,2.27905 2.096,3.43804 0.68884,1.093253 1.32458,2.216483 1.95027,3.346563 0.59717,1.052023 0.99114,2.198726 1.38596,3.337276 0.36261,0.992133 0.67978,2.001666 0.97358,3.016359 0.22541,1.037133 0.4224,2.081746 0.7612,3.089739 0.30826,0.8058 0.88128,1.46111 1.26297,2.22726 0.29752,0.585813 0.42417,1.230283 0.6227,1.850533 0.0329,0.0877 0.0658,0.17538 0.0987,0.26303 l 3.58996,1.650036 c -0.0376,-0.0776 -0.0751,-0.154983 -0.11265,-0.232543 -0.21484,-0.6301 -0.34885,-1.283523 -0.62529,-1.892913 -0.31393,-0.81028 -0.91093,-1.43782 -1.28674,-2.217433 -0.42327,-0.96797 -0.57213,-2.034363 -0.78807,-3.062353 -0.27818,-1.025853 -0.59572,-2.045576 -0.96841,-3.040129 -0.40084,-1.154233 -0.78228,-2.326346 -1.36891,-3.402386 -0.62429,-1.132143 -1.25059,-2.263236 -1.94097,-3.356906 -0.70809,-1.158983 -1.3147,-2.378613 -2.09858,-3.491786 -0.63164,-0.81498 -1.25295,-1.664464 -2.01745,-2.363671 -1.15317,-1.05472 -4.18795,-2.596103 -4.53925,-2.803443 -1.62753,-0.794553 -3.39896,-1.322826 -5.22397,-1.306906 -1.99038,0.10448 -3.97756,0.301343 -5.91902,0.774113 -0.60268,0.14365 -1.52709,0.35244 -2.12235,0.538473 -1.45436,0.45452 -2.82534,1.161363 -4.09588,1.995743 -0.89861,0.66656 -0.96194,0.68761 -1.81487,1.426267 -1.00191,0.867694 -1.89869,1.857217 -2.97863,2.632917 -0.12502,0.0599 -0.22472,0.11324 -0.3142,0.16019 -0.4865,-0.93004 -0.91058,-1.894863 -1.45004,-2.798267 -0.97061,-1.734557 -2.17159,-3.30908 -3.40444,-4.864826 -0.95896,-1.338213 -1.92876,-2.666276 -2.99207,-3.924839 -1.28144,-1.453236 -2.63296,-2.851199 -4.19095,-4.013202 -1.84234,-1.226053 -3.73683,-2.286376 -5.668898,-3.399286 -0.540557,-0.31136 -1.354404,-0.739503 -1.923901,-0.985473 -0.328143,-0.14172 -0.667593,-0.25537 -1.001493,-0.38292 -0.84141,-0.244873 -1.11498,-0.363903 -1.987993,-0.461473 -0.27435,-0.0307 -0.55018,-0.0443 -0.826307,-0.0455 z M 74.530333,50.453294 c 0.09769,0.0573 0.195316,0.11477 0.293006,0.17209 0.09627,0.0565 -0.197938,-0.105 -0.289389,-0.16898 -0.0016,-10e-4 -0.002,-0.002 -0.0036,-0.003 z m 42.222217,1.04128 c 0.25453,0.14758 0.51114,0.29167 0.76119,0.446493 0.1493,0.0924 -0.32569,-0.135303 -0.4749,-0.227893 -0.10208,-0.0633 -0.19414,-0.141 -0.28629,-0.2186 z" />
    <path
       style="fill:#ffff00;stroke-width:0.264583"
       id="path339"
       d="m 40.776433,20.02124 c -0.881727,-1.822585 -1.987405,-3.518113 -3.106259,-5.200889 -1.491858,-2.097829 -3.006373,-4.187021 -4.672692,-6.1516328 -0.974,-1.1483574 -1.754209,-1.9681369 -2.771153,-3.0665043 0,0 -3.354279,-1.4028052 -3.354279,-1.4028052 v 0 c 1.030033,1.0932082 1.812224,1.8960779 2.78933,3.0465151 1.647812,1.9401184 3.149531,4.0036792 4.610431,6.0857702 1.06558,1.624692 2.100937,3.270559 2.912554,5.038886 0,0 3.592068,1.65066 3.592068,1.65066 z" />
    <path
       style="fill:#ffff00;stroke-width:0.264583"
       id="path341"
       d="m 48.748318,19.317033 c -0.148952,-2.72966 0.0093,-5.463465 0.08062,-8.193263 0.04439,-1.4849485 0.06317,-2.9704811 0.08652,-4.4558567 0,0 -3.325058,-1.6997734 -3.325058,-1.6997734 v 0 c -0.01614,1.4854134 -0.03674,2.970731 -0.07478,4.4557813 -0.07993,2.7046808 -0.173882,5.4092008 -0.260141,8.1134228 0,0 3.492833,1.779689 3.492833,1.779689 z" />
    <path
       style="fill:#ffff00;stroke-width:0.264583"
       id="path343"
       d="m 60.947239,18.38348 c 0.545952,-2.346411 0.692431,-4.755575 1.12757,-7.122373 0.164208,-0.893166 0.37221,-1.7777175 0.558316,-2.6665778 0.51445,-1.9372149 0.630436,-2.6349646 1.35437,-4.4352635 0.213749,-0.5315643 0.483058,-1.0390613 0.724588,-1.5585946 0,0 -3.210658,-1.80722947 -3.210658,-1.80722947 v 0 C 61.276368,1.3345706 61.026188,1.8659204 60.826248,2.4168251 60.175273,4.2104967 60.023449,5.0356979 59.54467,6.9376768 c -0.195599,0.888476 -0.399822,1.7750954 -0.586793,2.6654287 -0.486251,2.3154595 -0.805696,4.6794825 -1.507929,6.9432805 0,0 3.497291,1.837093 3.497291,1.837094 z" />
    <path
       style="fill:#ffff00;stroke-width:0.264583"
       id="path345"
       d="m 70.417537,21.230191 c 0.156186,-0.119103 0.319447,-0.229458 0.468561,-0.357305 0.382365,-0.327829 1.424771,-1.339541 1.706806,-1.597904 1.409922,-1.291579 2.878497,-2.50688 4.363439,-3.710313 2.959273,-2.331146 6.285002,-4.139036 9.729522,-5.6420715 0.786843,-0.343344 1.590823,-0.6460123 2.386236,-0.9690153 0,0 -2.939796,-1.9621584 -2.939796,-1.9621584 v 0 c -4.260136,1.8508514 -8.508582,3.8312922 -12.226602,6.6560182 -1.620811,1.267352 -1.71953,1.324391 -3.245766,2.591753 -1.012523,0.840779 -1.979747,1.773999 -3.05631,2.535578 -0.152591,0.107945 -0.321146,0.191339 -0.481719,0.287011 0,0 3.295629,2.168407 3.295629,2.168407 z" />
    <path
       style="fill:#ffff00;stroke-width:0.264583"
       id="path347"
       d="m 78.55553,28.458881 c 0.222467,-0.15797 0.462122,-0.29419 0.667402,-0.473927 0.593607,-0.519757 2.171957,-2.161967 2.629867,-2.628044 0.607983,-0.618815 2.717376,-2.764763 3.329056,-3.339709 0.58877,-0.553404 1.20716,-1.074428 1.81074,-1.611643 2.985289,-2.445663 6.31271,-4.464358 9.735226,-6.237313 0.990484,-0.513103 2.008118,-0.972018 3.012182,-1.458028 0,0 -2.829355,-1.867318 -2.829355,-1.867318 v 0 c -1.01266,0.487256 -2.03669,0.951544 -3.03798,1.461767 -3.475134,1.770824 -6.868563,3.762653 -9.903003,6.224246 -0.6081,0.541545 -1.229183,1.068867 -1.824313,1.624633 -0.12907,0.120544 -3.2092,3.14931 -3.375875,3.309173 -0.798351,0.765731 -1.834353,1.784284 -2.784364,2.420064 -0.201197,0.134649 -0.442102,0.197445 -0.663154,0.296169 0,0 3.233571,2.27993 3.233571,2.27993 z" />
    <path
       style="fill:#ffff00;stroke-width:0.264583"
       id="path349"
       d="m 28.156575,35.991583 c -1.561528,-0.36073 -3.101382,-0.833573 -4.684035,-1.099993 -1.714621,-0.28864 -3.273978,-0.4022 -5.012698,-0.568193 -3.60273,-0.3587 -7.216126,-0.42645 -10.8328785,-0.42111 0,0 2.8891085,2.095866 2.8891085,2.095866 v 0 c 3.590525,-0.0474 7.178556,0.0194 10.752643,0.41125 2.1904,0.250393 3.029749,0.299253 5.129373,0.707483 1.656776,0.32213 3.26467,0.842933 4.897263,1.261723 0,0 -3.138776,-2.387026 -3.138776,-2.387026 z" />
    <path
       style="fill:#008080;stroke-width:0.264583"
       id="path510"
       d="m 33.600989,85.314433 c -0.281181,1.915356 -0.56438,3.829209 -0.893432,5.737042 0,0 3.32595,1.765656 3.32595,1.765656 v 0 c 0.314558,-1.886806 0.577625,-3.789329 1.039688,-5.646302 0,0 -3.472206,-1.856396 -3.472206,-1.856396 z" />
    <path
       style="fill:#008080;stroke-width:0.264583"
       id="path512"
       d="m 63.350132,89.874322 c 0.109395,1.465753 0.09874,2.936899 0.107104,4.405562 0,0 3.295046,1.678916 3.295046,1.678916 v 0 c 0.0082,-1.432206 -0.0049,-2.867319 0.107106,-4.296412 0,0 -3.509256,-1.788066 -3.509256,-1.788066 z" />
    <path
       style="fill:#008080;stroke-width:0.264583"
       id="path514"
       d="m 86.830015,97.54671 c 0.11247,2.332636 0.0613,4.66848 0.0752,7.00276 0.003,1.74733 0.004,0.8873 -0.004,2.58007 0,0 3.361389,1.7127 3.361389,1.7127 v 0 c -0.008,-1.69838 -0.007,-0.83698 -0.004,-2.58416 0.0139,-2.30871 -0.0384,-4.6191 0.0752,-6.926097 0,0 -3.503799,-1.785273 -3.503799,-1.785273 z" />
    <path
       style="fill:#008080;stroke-width:0.264583"
       id="path516"
       d="m 123.04666,95.99049 c 0.0472,2.34896 0.16192,4.69483 0.28786,7.04069 0,0 3.32344,1.66798 3.32344,1.66798 v 0 c -0.15733,-2.3088 -0.27232,-4.62097 -0.12941,-6.93456 0,0 -3.48189,-1.77411 -3.48189,-1.77411 z" />
    <path
       style="fill:#008080;stroke-width:0.264583"
       id="path518"
       d="m 13.284418,81.388591 c -0.173059,2.767659 -0.501663,5.525548 -0.766731,8.286541 0,0 3.215891,1.677003 3.215891,1.677003 v 0 c 0.255466,-2.737173 0.570503,-5.468829 1.060096,-8.175488 0,0 -3.509256,-1.788056 -3.509256,-1.788056 z" />
    <path
       style="fill:#008080;stroke-width:0.264583"
       id="path520"
       d="m 50.050372,92.632441 c -0.07551,3.014536 -0.728316,5.968672 -1.323805,8.910779 0,0 2.938512,1.57972 2.938512,1.57972 v 0 c 0.708438,-2.88268 1.455928,-5.75932 1.905498,-8.696856 0,0 -3.520205,-1.793643 -3.520205,-1.793643 z" />
    <path
       style="fill:#008080;stroke-width:0.264583"
       id="path522"
       d="m 19.256492,101.83944 c 0.331933,3.39591 0.330309,6.81468 0.265645,10.22275 -0.01794,0.54431 -0.03589,1.08862 -0.05383,1.63292 0,0 3.294406,1.68718 3.294406,1.68718 v 0 c 0.0047,-0.55193 0.0095,-1.10385 0.01423,-1.65578 0.03317,-3.37837 0.0024,-6.75552 -0.0077,-10.13386 0,0 -3.512778,-1.75321 -3.512778,-1.75321 z" />
    <path
       style="fill:#008080;stroke-width:0.264583"
       id="path524"
       d="m 66.458822,102.56769 c 0.105482,2.01002 0.09439,4.02335 0.08361,6.03531 0,0 3.347506,1.70565 3.347506,1.70565 v 0 c -0.01056,-1.98352 -0.02397,-3.96863 0.08361,-5.95011 0,0 -3.514731,-1.79085 -3.514731,-1.79085 z" />
    <path
       style="fill:#008080;stroke-width:0.264583"
       id="path526"
       d="m 39.301799,103.94675 c 0.07387,1.27289 0.191812,2.56839 0.477806,3.814 0.297569,1.29603 0.74418,2.5861 1.149249,3.84846 0.262472,0.70662 0.524944,1.41324 0.787413,2.11985 0,0 3.256338,1.51614 3.256338,1.51614 v 0 c -0.258016,-0.69783 -0.51603,-1.39567 -0.774046,-2.0935 -0.738502,-2.40243 -1.485482,-4.86705 -1.376553,-7.41132 0,0 -3.520207,-1.79363 -3.520207,-1.79363 z" />
    <path
       style="fill:#008080;stroke-width:0.264583"
       id="path528"
       d="m 104.11362,103.53658 c 0.29113,3.03727 0.29147,6.09541 0.30876,9.14425 7.9e-4,0.43718 10e-4,0.87436 0.002,1.31154 0,0 3.35249,1.70385 3.35249,1.70385 v 0 c -0.008,-0.44147 -0.0166,-0.88294 -0.0249,-1.32441 -0.0631,-3.02673 -0.15759,-6.05457 -0.12564,-9.08201 0,0 -3.51278,-1.75322 -3.51278,-1.75322 z" />
    <path
       style="fill:#000000;stroke-width:0.264583"
       id="path280"
       d="m 1.6790651,64.311441 c 0.03958,1.33965 0.5422647,2.357473 1.1802914,3.499583 0.8765073,1.656373 2.1774793,2.980246 3.5180836,4.261742 1.2550374,1.213743 2.6657475,2.232886 4.1605789,3.126109 1.62991,0.99501 3.306805,1.91027 4.963914,2.858413 0.378293,0.21645 0.715812,0.41976 1.124371,0.57319 1.082167,0.22733 2.199603,0.21166 3.300476,0.21915 1.370134,7.9e-4 2.740271,-8e-4 4.110408,-0.002 1.053951,-0.0183 2.115947,0.0265 3.161366,-0.14391 0.417501,-0.0681 1.138832,-0.25937 1.557168,-0.36523 0.551579,-0.0614 1.537099,-0.680133 2.076897,-0.637063 0.0919,0.007 0.164441,0.0834 0.246663,0.125093 -1.065519,-0.582583 -2.131039,-1.165163 -3.196558,-1.747743 0.07398,0.11022 0.163795,0.21133 0.221932,0.33067 0.174326,0.35785 0.275752,0.74683 0.412171,1.12078 0.233354,0.639653 0.484007,1.251093 0.779375,1.864963 0.546499,0.91026 1.067797,1.849953 1.814896,2.616926 0.680469,0.698563 0.934461,0.835613 1.720514,1.415033 2.240963,1.437056 4.363752,2.655499 6.893544,3.317919 1.292598,0.338463 2.599769,0.507493 3.924464,0.651233 2.593581,0.2531 5.195702,0.38136 7.799917,0.448333 1.181827,-0.0275 2.372883,0.11047 3.55438,0.0504 0.36794,-0.0187 1.024438,-0.124543 1.39681,-0.179833 0.745572,-0.1403 1.414457,-0.49122 2.102823,-0.78787 0.843447,-0.363493 1.642309,-0.736763 2.449616,-1.178173 1.043337,-0.570793 2.091518,-1.152836 3.207451,-1.573256 0.199385,-0.0751 0.396407,-0.16572 0.606277,-0.20247 0.200049,-0.035 0.40613,-0.007 0.609195,-0.0104 1.965098,1.042163 -1.37084,-0.828573 -2.094738,-1.167733 -0.247885,-0.11614 0.435713,0.33238 0.640149,0.51443 0.645769,0.575053 1.224023,1.237643 1.817135,1.865356 1.301046,1.510843 2.82925,2.679679 4.519302,3.715859 3.140374,2.121703 6.588829,3.410416 10.126719,4.635379 2.819559,0.942853 5.731979,1.505966 8.665925,1.945266 3.748284,0.638833 7.51011,1.142703 11.297909,1.469213 1.80057,0.17212 3.61391,0.23756 5.3953,-0.13159 1.02189,-0.21176 1.24179,-0.32912 2.20417,-0.6776 2.01339,-0.837203 3.64149,-1.928186 5.30853,-3.315199 1.39919,-1.281923 2.78132,-2.598189 3.8948,-4.140459 0.70396,-0.912103 1.07865,-1.814083 1.41197,-2.892706 0.0631,-0.116733 0.17649,-0.549833 0.40318,-0.512423 0.0462,0.008 0.37342,0.32798 0.34335,0.31243 -1.02027,-0.52757 -2.01313,-1.106553 -3.01969,-1.659823 0.12615,0.15158 0.2601,0.29699 0.37846,0.45473 0.33385,0.444903 0.6304,0.916793 0.95847,1.365976 0.59505,0.81475 1.20812,1.617223 1.82015,2.419236 0.81339,1.02719 1.66177,2.05921 2.73117,2.834703 1.5255,1.106243 3.28186,1.853226 4.93795,2.752269 1.51813,0.4283 3.1577,0.7212 4.74234,0.5579 0.31816,-0.0328 0.631,-0.10505 0.9465,-0.15758 1.73049,-0.30217 3.39136,-0.892893 5.05351,-1.445053 1.21698,-0.407593 2.38312,-0.946863 3.55632,-1.463176 1.20265,-0.53743 2.43622,-0.998773 3.68949,-1.404333 1.03522,-0.36852 2.05778,-0.77423 3.10529,-1.1078 0.91558,-0.20809 1.65736,-0.85389 2.3646,-1.441943 0.80811,-0.666063 1.53859,-1.410613 2.23379,-2.191336 0.52681,-0.692473 1.10997,-1.346593 1.56566,-2.089556 0.2704,-0.559943 0.6343,-1.062203 0.94122,-1.599996 0.42064,-0.61664 0.66918,-1.310923 0.88652,-2.019643 0.25792,-0.92235 0.27269,-1.889573 0.30676,-2.840493 0.0226,-0.8372 0.0156,-1.674903 0.0179,-2.512356 7.9e-4,-0.64333 0.006,-1.286673 5.3e-4,-1.929993 -0.0243,-0.731113 -0.27455,-1.418716 -0.76638,-1.958596 -1.43125,-1.069903 -0.18961,-0.16032 -3.98228,-2.337236 0,0 3.06784,2.463346 3.06784,2.463346 v 0 c -3.14907,-1.840916 -4.0616,-2.373746 -2.73669,-1.600036 0.0947,0.0574 0.19888,0.10141 0.28396,0.172243 0.38016,0.31649 0.55477,1.003223 0.62182,1.471323 -0.004,0.645133 0.003,1.290263 0.008,1.935386 0.007,0.836273 0.0105,1.672553 0.001,2.508836 -0.0172,0.919263 -0.0333,1.850533 -0.26426,2.746023 -0.20052,0.686013 -0.46008,1.338453 -0.86891,1.929183 -0.29899,0.5375 -0.6565,1.040613 -0.9217,1.598063 -0.43063,0.728363 -0.99866,1.364333 -1.50061,2.043406 -0.68287,0.764333 -1.41479,1.481223 -2.2046,2.135816 -0.70078,0.555603 -1.40834,1.115103 -2.29974,1.317693 -1.02767,0.367043 -2.04477,0.762793 -3.07443,1.124273 -1.25856,0.416283 -2.49163,0.908363 -3.70635,1.437963 -1.16537,0.50657 -2.32603,1.02856 -3.52838,1.443263 -1.62776,0.57271 -3.27002,1.143693 -4.98096,1.410293 -0.30595,0.0401 -0.61002,0.0989 -0.91785,0.12044 -1.56593,0.10938 -3.17128,-0.18894 -4.64566,-0.693943 0.81357,0.502803 1.63824,0.988063 2.4407,1.508406 0.2632,0.17067 -0.55977,-0.28612 -0.82177,-0.458633 -1.0965,-0.72198 -1.96058,-1.736313 -2.77222,-2.751216 -1.06834,-1.37957 -2.13278,-2.765023 -3.04803,-4.252619 -1.22579,-0.768323 -2.43339,-1.566473 -3.67737,-2.304966 -0.55252,-0.328 -0.97573,0.36759 -1.1191,0.784283 -0.28782,1.008023 -0.62534,1.974446 -1.27934,2.819956 -1.07412,1.524466 -2.43395,2.817896 -3.79706,4.082419 -0.66452,0.54113 -1.00538,0.844433 -1.71419,1.321163 -1.10747,0.744863 -2.3124,1.331003 -3.52404,1.882896 -0.94269,0.33095 -1.14134,0.43872 -2.14419,0.63048 -1.74135,0.332973 -3.516134,0.248033 -5.272805,0.112563 -3.7908,-0.302833 -7.553101,-0.825463 -11.29596,-1.499956 -2.93283,-0.46383 -5.841929,-1.063823 -8.657705,-2.024486 -1.624644,-0.56851 -3.235124,-1.158543 -4.815112,-1.843483 -0.350181,-0.15181 -1.349227,-0.70102 -1.042093,-0.47444 0.701664,0.51764 1.491308,0.90395 2.236962,1.35592 -1.68756,-0.99684 -3.240598,-2.10009 -4.522295,-3.604806 -2.019163,-2.140846 -3.931539,-4.307502 -7.070019,-4.950112 -0.222194,0.0315 -0.449231,0.0387 -0.666581,0.0946 -0.290361,0.0747 -1.023863,0.41891 -1.27295,0.53881 -0.856154,0.412093 -1.687351,0.873103 -2.528781,1.313776 -1.433918,0.75751 -2.930454,1.463983 -4.517628,1.826413 -1.606915,0.22345 -3.226213,0.13821 -4.844653,0.12709 -2.588237,-0.0578 -5.177801,-0.16567 -7.751887,-0.45593 -1.756823,-0.21765 -3.479414,-0.499833 -5.147601,-1.119043 -0.416973,-0.15477 -1.561828,-0.811903 -1.231149,-0.514463 0.614416,0.552673 1.405795,0.869213 2.108692,1.303816 C 35.565194,84.27493 35.3348,84.16681 34.64414,83.501957 c -0.757894,-0.72957 -1.252154,-1.638463 -1.820765,-2.509556 -0.557681,-1.087063 -0.986949,-2.234773 -1.28493,-3.420636 -1.203527,-0.70734 -2.378832,-1.46504 -3.610576,-2.12201 -0.128564,-0.0686 -0.627375,0.1069 -0.711769,0.13482 -0.548812,0.18154 -1.082222,0.40933 -1.641176,0.56084 -0.560835,0.13974 -0.93336,0.24808 -1.512898,0.32646 -1.050052,0.14202 -2.113799,0.0883 -3.169314,0.0929 -1.367054,0.006 -2.734252,0.0192 -4.101256,1.9e-4 -1.086366,-0.0243 -2.21475,-5.3e-4 -3.249951,-0.37279 -0.475784,-0.23276 -0.196657,-0.0887 -0.673894,-0.35359 -0.134845,-0.0749 -0.538009,-0.30176 -0.405125,-0.22348 0.944058,0.55609 1.893475,1.10303 2.838773,1.657 0.184142,0.10791 -0.371827,-0.20973 -0.555281,-0.31881 -0.200173,-0.11901 -0.396986,-0.2436 -0.595482,-0.36541 -1.523042,-0.87056 -2.97797,-1.854393 -4.2535257,-3.067856 C 8.5734299,72.272376 7.2654178,71.003093 6.3856951,69.387337 5.8086568,68.352684 5.1851208,67.337994 5.2042228,66.107781 c 0,0 -3.5256797,-1.79642 -3.5256797,-1.79642 z" />
    <path
       style="fill:#ffff00;stroke-width:0.264583"
       id="path820"
       d="m 77.254867,90.870635 c -0.848082,0.811173 -1.600454,1.718813 -2.374217,2.600696 -1.10667,1.153903 -2.230371,2.291106 -3.345561,3.436779 -1.145701,1.36959 -2.344158,2.692236 -3.517715,4.03759 -1.087823,1.32319 -2.328526,2.50298 -3.625117,3.61747 -1.152731,0.91024 -2.352775,1.76157 -3.56027,2.5975 -0.911056,0.58501 -1.721046,1.30443 -2.602765,1.92873 -0.04448,0.0314 -0.568338,0.39403 -0.629073,0.46158 -0.09235,0.1027 -0.280699,0.48012 -0.08151,0.60852 2.664164,1.71747 2.588715,1.65875 4.301945,2.30223 2.374191,0.8754 4.763024,1.71172 7.140122,2.57977 1.760477,0.66193 3.580414,1.14269 5.409941,1.56897 1.275411,0.26898 2.490952,0.75144 3.74513,1.10223 0.192116,0.0569 0.38849,0.10103 0.576347,0.17072 0.392618,0.14566 0.764405,0.3425 1.150905,0.5037 0.470197,0.19611 0.906267,0.38537 1.34053,0.65186 -1.065333,-0.61118 -2.130657,-1.22237 -3.195989,-1.83355 0.01617,-0.004 0.06151,-0.0221 0.04846,-0.0119 -0.70675,0.55845 -1.479039,1.04777 -2.228897,1.54509 -0.307981,0.19957 -0.612498,0.4046 -0.923939,0.59874 -0.320066,0.1995 -0.646872,0.38799 -0.970306,0.58199 -0.334137,0.20241 -0.671071,0.40027 -1.002414,0.60722 -1.070377,0.66855 -2.0995,1.39382 -3.131711,2.11899 -1.683158,1.27931 -3.091148,2.86274 -4.55371,4.37649 -1.083124,1.12103 -1.126664,1.14379 -2.223997,2.19783 -2.039022,1.99612 -4.280942,3.76439 -6.437024,5.62803 -1.278649,1.09665 -2.567906,2.1774 -3.825835,3.29717 0,0 3.28032,2.03181 3.28032,2.03181 v 0 c 1.228447,-1.13964 2.536756,-2.18567 3.759165,-3.33283 2.108713,-1.91499 4.31591,-3.72057 6.382118,-5.68321 2.223214,-2.20445 4.272772,-4.61234 6.788907,-6.49697 1.962351,-1.38468 4.001452,-2.63815 6.064305,-3.86687 0.523707,-0.33221 2.170707,-1.2487 2.520157,-1.73423 0.0741,-0.1029 0.22033,-0.28671 0.11801,-0.36155 -1.107383,-0.80998 -2.348467,-1.41919 -3.522709,-2.12879 -0.987377,-0.49532 -2.027002,-0.912 -3.085248,-1.22494 -1.249431,-0.36144 -2.467255,-0.83723 -3.748291,-1.08187 -1.778632,-0.42011 -3.553259,-0.86779 -5.26615,-1.51419 -2.430198,-0.8738 -4.86296,-1.73976 -7.265112,-2.68875 -0.186629,-0.0749 -0.728903,-0.33352 -0.559885,-0.22459 0.977009,0.62971 2.038472,1.12637 2.991499,1.79183 0.07997,0.0558 -0.175067,0.10106 -0.272437,0.10674 -0.203139,0.0118 0.745297,-0.6271 0.61082,-0.5494 0.862748,-0.6377 1.659369,-1.36223 2.55991,-1.95083 1.198481,-0.86495 2.428375,-1.68928 3.559373,-2.64301 1.299255,-1.13493 2.544533,-2.33774 3.64313,-3.67082 1.158317,-1.34791 2.362341,-2.65607 3.506632,-4.016537 1.130813,-1.144593 2.263605,-2.286843 3.394384,-3.431426 0.755737,-0.856223 1.476004,-1.777683 2.389071,-2.471056 0,0 -3.3313,-2.133006 -3.3313,-2.133006 z" />
    <path
       style="fill:#ffff00;stroke-width:0.264583"
       id="path832"
       d="m 70.601128,86.988609 c -1.147976,1.157123 -2.458209,2.127893 -3.698324,3.179203 -0.595673,0.534163 -1.270805,0.975773 -1.869649,1.505626 -0.639411,0.56574 -1.217655,1.209193 -1.807999,1.824643 -1.030853,1.070683 -1.896715,2.286729 -2.823739,3.446069 -1.003038,1.33864 -2.146244,2.379733 -3.42257,3.44221 -1.197449,0.97856 -2.44484,1.89299 -3.629835,2.88692 -0.920729,0.82092 -1.911382,1.55679 -2.881302,2.3177 -0.666977,0.49807 -1.219324,1.13389 -1.68171,1.82213 -0.4132,0.6495 -0.840999,1.30359 -1.371177,1.86498 -0.476152,0.49282 -0.588433,0.91379 -0.06169,1.41585 1.597996,1.54193 2.978711,1.7609 4.632939,2.54579 0.146383,0.0695 0.287496,0.14953 0.430352,0.22598 0.142134,0.0761 0.564298,0.31197 0.424588,0.23154 -0.966169,-0.55619 -1.936041,-1.10592 -2.904062,-1.6589 1.922513,1.39506 9.828176,5.78405 2.768682,1.75344 2.097601,1.39013 4.275273,2.64751 6.629826,3.52707 1.128316,0.42001 2.30514,0.5753 3.49527,0.69201 0.902984,0.14627 1.815312,0.24146 2.694194,0.50312 0.127802,0.0478 0.256739,0.0926 0.383408,0.14327 0.288412,0.11541 0.578054,0.22873 0.859541,0.36013 0.146402,0.0683 0.569177,0.30587 0.429353,0.22492 -3.205213,-1.85556 -3.916617,-2.43948 -2.81513,-1.56172 0.0213,0.0385 0.06036,0.0716 0.06386,0.11537 0.01558,0.19494 -0.745255,0.80384 -0.880655,0.91847 -0.833022,0.66737 -1.64211,1.35786 -2.515465,1.973 -0.825993,0.58675 -1.6514,1.17786 -2.438834,1.81587 -0.953503,1.12377 -1.779516,2.35983 -2.58621,3.59323 -0.56515,0.99938 -1.034542,2.04675 -1.410181,3.13069 -0.261044,0.97227 -0.605698,1.92008 -0.836488,2.90019 -0.226632,0.85741 -0.469207,1.70614 -0.823447,2.51962 -0.26256,0.69594 -0.530612,1.38894 -0.801807,2.08156 -0.16111,0.42709 -0.29264,0.86371 -0.419124,1.30192 0,0 3.439092,1.87184 3.439092,1.87184 v 0 c 0.115109,-0.42784 0.234127,-0.85492 0.405966,-1.26449 0.26798,-0.68974 0.561398,-1.36875 0.801153,-2.06883 0.347924,-0.84259 0.592328,-1.71276 0.844005,-2.58839 0.209666,-0.97216 0.54307,-1.90803 0.806759,-2.86605 0.368888,-1.05387 0.778912,-2.09471 1.330825,-3.06876 0.7727,-1.2049 1.552697,-2.43882 2.555828,-3.46476 0.790691,-0.61907 1.594299,-1.22244 2.40893,-1.80956 0.878457,-0.63007 1.714712,-1.31266 2.566879,-1.97741 0.501534,-0.41671 1.121873,-0.84949 1.114182,-1.56448 -0.0557,-0.10051 -0.06979,-0.24042 -0.167103,-0.30152 -1.704644,-1.07028 -3.474389,-2.20882 -5.42771,-2.79978 -0.890082,-0.20318 -1.794687,-0.32732 -2.701081,-0.43294 -1.17479,-0.12661 -2.329926,-0.34249 -3.434855,-0.77695 -0.528712,-0.21346 -1.060776,-0.42722 -1.574472,-0.67549 -0.188304,-0.091 -0.737143,-0.39487 -0.557824,-0.28723 4.336394,2.60286 3.326339,1.97034 2.190401,1.24811 -7.414935,-4.35692 -3.03017,-1.77115 -0.89131,-0.54509 0.158986,0.0911 -0.311322,-0.19342 -0.467971,-0.28852 -0.329253,-0.19987 -0.640337,-0.37317 -0.957395,-0.59251 -0.151783,-0.105 -0.295836,-0.22076 -0.443754,-0.33114 -1.259075,-0.73229 -2.514658,-1.47064 -3.777228,-2.19688 -0.429991,-0.24735 -0.89189,-0.43127 -1.338559,-0.64433 -0.142997,-0.0682 -0.560443,-0.29514 -0.424506,-0.21377 0.990751,0.59306 1.993257,1.16627 2.989885,1.74939 -0.532183,-0.25538 -0.732211,-0.29985 -0.240308,-0.82159 0.518154,-0.59542 0.952246,-1.25942 1.375563,-1.92407 0.452472,-0.64726 0.995196,-1.23965 1.621952,-1.72258 0.952939,-0.77348 1.895443,-1.56034 2.826681,-2.35987 1.197631,-0.97603 2.44035,-1.89537 3.620029,-2.89365 1.274659,-1.05248 2.481408,-2.1685 3.472048,-3.502137 0.928991,-1.144813 1.810273,-2.331673 2.804091,-3.421096 1.129924,-1.198943 2.344978,-2.286256 3.640291,-3.304649 1.251749,-1.058163 2.547157,-2.063366 3.803218,-3.116576 0,0 -3.346323,-2.086143 -3.346323,-2.086143 z" />
  </g>
</svg>
